<?xml version="1.0" encoding="UTF-8"?>
<svg version="1.1" xmlns="http://www.w3.org/2000/svg" width="500" height="500">
<path d="M0 0 C0 0.66 0 1.32 0 2 C0.56460938 2.08507812 1.12921875 2.17015625 1.7109375 2.2578125 C4.67809969 3.21986167 6.32807444 4.7778071 8.625 6.875 C9.78902344 7.92300781 9.78902344 7.92300781 10.9765625 8.9921875 C13 11 13 11 15 14 C15 14.99 15 15.98 15 17 C15.66 17 16.32 17 17 17 C23.7667735 29.9293708 25.09720161 43.12153319 22.33203125 57.46484375 C20.10475502 64.2439334 16.01078101 70.15176759 12 76 C11.34 76.99 10.68 77.98 10 79 C9.34 79 8.68 79 8 79 C7.731875 79.57234375 7.46375 80.1446875 7.1875 80.734375 C5.95867364 83.07884634 4.57477824 85.12404938 3 87.25 C2.484375 87.95640625 1.96875 88.6628125 1.4375 89.390625 C0.963125 89.92171875 0.48875 90.4528125 0 91 C-0.66 91 -1.32 91 -2 91 C-2.268125 91.57234375 -2.53625 92.1446875 -2.8125 92.734375 C-4.04132636 95.07884634 -5.42522176 97.12404938 -7 99.25 C-7.515625 99.95640625 -8.03125 100.6628125 -8.5625 101.390625 C-9.036875 101.92171875 -9.51125 102.4528125 -10 103 C-10.66 103 -11.32 103 -12 103 C-12 103.66 -12 104.32 -12 105 C-12.66 105 -13.32 105 -14 105 C-14.25136719 105.56203125 -14.50273438 106.1240625 -14.76171875 106.703125 C-16.18851259 109.34967004 -17.85944486 111.4645894 -19.8125 113.75 C-20.47894531 114.54921875 -21.14539063 115.3484375 -21.83203125 116.171875 C-24 118 -24 118 -26.76171875 118.265625 C-27.50035156 118.17796875 -28.23898438 118.0903125 -29 118 C-29.33 117.01 -29.66 116.02 -30 115 C-30.66 115 -31.32 115 -32 115 C-37 109.52380952 -37 109.52380952 -37 107 C-37.66 107 -38.32 107 -39 107 C-43 102.52941176 -43 102.52941176 -43 100 C-43.66 100 -44.32 100 -45 100 C-49 95.52941176 -49 95.52941176 -49 93 C-49.66 93 -50.32 93 -51 93 C-52.63139937 91.07412421 -54.13723225 89.15673283 -55.625 87.125 C-56.04523438 86.56941406 -56.46546875 86.01382813 -56.8984375 85.44140625 C-60 81.26235288 -60 81.26235288 -60 79 C-60.66 79 -61.32 79 -62 79 C-62 78.34 -62 77.68 -62 77 C-62.66 77 -63.32 77 -64 77 C-64 76.34 -64 75.68 -64 75 C-64.66 75 -65.32 75 -66 75 C-75.12430164 62.74736637 -77.86066735 50.2302576 -76.515625 35.2578125 C-75.48488299 28.74539708 -73.00431732 22.83349507 -70 17 C-69.34 17 -68.68 17 -68 17 C-67.71125 16.236875 -67.4225 15.47375 -67.125 14.6875 C-66 12 -66 12 -64 9 C-63.34 9 -62.68 9 -62 9 C-62 8.34 -62 7.68 -62 7 C-61.071875 6.87625 -61.071875 6.87625 -60.125 6.75 C-59.42375 6.5025 -58.7225 6.255 -58 6 C-57.72414063 5.38898438 -57.44828125 4.77796875 -57.1640625 4.1484375 C-54.5097289 -0.75050035 -47.83919385 -3.22753858 -42.875 -5.3125 C-28.0879651 -8.84853009 -13.415785 -7.26688354 0 0 Z M-28 8 C-28.0093457 9.15000488 -28.01869141 10.30000977 -28.02832031 11.48486328 C-28.06831384 15.76796632 -28.13409835 20.05035813 -28.20751953 24.33300781 C-28.23567498 26.18350053 -28.25691646 28.03411229 -28.27099609 29.88476562 C-28.2925012 32.5513988 -28.3391886 35.21660884 -28.390625 37.8828125 C-28.39246796 39.11597702 -28.39246796 39.11597702 -28.39434814 40.37405396 C-28.52838676 45.67857405 -29.45623124 48.8042338 -33 53 C-35.21875 53.91015625 -35.21875 53.91015625 -37.5 54.0625 C-38.2528125 54.13597656 -39.005625 54.20945313 -39.78125 54.28515625 C-42.73296339 53.90579872 -43.96804328 53.17742119 -46 51 C-46.49609375 48.1875 -46.49609375 48.1875 -46.4375 45 C-46.43621094 43.948125 -46.43492188 42.89625 -46.43359375 41.8125 C-46 39 -46 39 -44.765625 37.23046875 C-41.49298033 34.94975399 -37.79266478 34.15428928 -34 33 C-34 27.72 -34 22.44 -34 17 C-34.66 16.67 -35.32 16.34 -36 16 C-40.31108569 17.86160518 -44.223773 20.21278483 -48 23 C-48 23.66 -48 24.32 -48 25 C-48.66 25 -49.32 25 -50 25 C-56.64494227 32.47556006 -58.35395586 40.36166901 -57.875 50.125 C-56.76689035 59.65961376 -53.05847719 64.71881528 -45.80859375 70.9453125 C-41.44107903 74.14046235 -35.59647483 78 -30 78 C-29.505 83.94 -29.505 83.94 -29 90 C-22.72553795 90.03671047 -22.72553795 90.03671047 -18.45117188 86.28515625 C-17.95166016 85.77855469 -17.45214844 85.27195312 -16.9375 84.75 C-15.9271453 83.764225 -14.91544244 82.77982974 -13.90234375 81.796875 C-13.42007324 81.32056641 -12.93780273 80.84425781 -12.44091797 80.35351562 C-11.07806049 79.07332555 -9.60453695 77.91400698 -8.12890625 76.765625 C-7.07509766 75.89164063 -7.07509766 75.89164063 -6 75 C-6 74.34 -6 73.68 -6 73 C-5.34 73 -4.68 73 -4 73 C4.62137631 62.56273608 8.69065191 53.14808978 8.34765625 39.3984375 C7.51261803 31.2357043 3.74434857 23.87564797 -2 18 C-2.66 18 -3.32 18 -4 18 C-4 17.34 -4 16.68 -4 16 C-15.21151939 7.88129387 -15.21151939 7.88129387 -28 8 Z " fill="#F7AE05" transform="translate(127,188)"/>
<path d="M0 0 C4.62 0 9.24 0 14 0 C18.77928283 11.15165995 23.1623863 22.48715889 27 34 C27.33 22.78 27.66 11.56 28 0 C32.95 0 37.9 0 43 0 C43 25.08 43 50.16 43 76 C38.38 76 33.76 76 29 76 C26 70 26 70 26 66 C25.34 66 24.68 66 24 66 C23.51080078 64.49759766 23.51080078 64.49759766 23.01171875 62.96484375 C22.57047685 61.6223418 22.12906129 60.27989693 21.6875 58.9375 C21.36749023 57.95233398 21.36749023 57.95233398 21.04101562 56.94726562 C19.95237697 53.648853 18.79189982 50.43514959 17.39453125 47.25390625 C16 44 16 44 15 40 C14.67 51.88 14.34 63.76 14 76 C9.38 76 4.76 76 0 76 C0 50.92 0 25.84 0 0 Z " fill="#EEA607" transform="translate(263,205)"/>
<path d="M0 0 C29.23834197 0 29.23834197 0 34.890625 4.5078125 C35.33921875 5.04148438 35.7878125 5.57515625 36.25 6.125 C36.70890625 6.64320313 37.1678125 7.16140625 37.640625 7.6953125 C42.76830163 16.38878725 42.46601567 25.17258479 42.39111328 34.93774414 C42.3750583 37.42845631 42.39100298 39.91754087 42.41015625 42.40820312 C42.42330034 52.32591491 41.89843061 61.12239961 37 70 C26.49761291 79.21336171 13.37973063 76 0 76 C0 50.92 0 25.84 0 0 Z M14 14 C14 30.17 14 46.34 14 63 C22.60373476 61.93314074 22.60373476 61.93314074 26 58 C27.19080426 54.42758721 27.16216094 51.16404282 27.16796875 47.4453125 C27.17129715 46.70675018 27.17462555 45.96818787 27.17805481 45.20724487 C27.18311412 43.64549379 27.18546344 42.08373192 27.18530273 40.52197266 C27.18748555 38.14076774 27.20564119 35.760029 27.22460938 33.37890625 C27.2275443 31.85937658 27.22952843 30.33984471 27.23046875 28.8203125 C27.24124702 27.75757614 27.24124702 27.75757614 27.25224304 26.67337036 C27.23395458 22.68684508 26.93358661 19.52109944 25 16 C21.49152482 13.26039974 21.49152482 13.26039974 14 14 Z " fill="#EDAA08" transform="translate(169,205)"/>
<path d="M0 0 C26 0 26 0 34 4 C40.57213671 10.57213671 41.31357754 16.82108719 41.3359375 25.67578125 C41.3425943 26.60037643 41.3492511 27.52497162 41.35610962 28.47758484 C41.36620472 30.42831442 41.37092761 32.37907831 41.37060547 34.32983398 C41.37497089 37.29274298 41.41130241 40.25415174 41.44921875 43.21679688 C41.45508936 45.11978662 41.45905712 47.02278338 41.4609375 48.92578125 C41.47530853 49.80107986 41.48967957 50.67637848 41.50448608 51.57820129 C41.45423105 58.44558016 39.97258036 64.62305507 35.33773804 69.88838196 C25.99082856 79.00793806 11.99578739 76 0 76 C0 50.92 0 25.84 0 0 Z M14 14 C14 30.17 14 46.34 14 63 C20.081241 61.9916727 20.081241 61.9916727 25 59 C27.45621359 55.31567961 27.30607273 52.49044164 27.30078125 48.2265625 C27.30506638 47.46580414 27.3093515 46.70504578 27.31376648 45.92123413 C27.31950647 44.31240839 27.32001246 42.70355669 27.31567383 41.09472656 C27.31252033 38.64082167 27.33595294 36.18813027 27.36132812 33.734375 C27.36360191 32.16927235 27.36430425 30.60416647 27.36328125 29.0390625 C27.372491 28.30869781 27.38170074 27.57833313 27.39118958 26.82583618 C27.34001254 21.15118384 25.97041716 17.97041716 22 14 C19.36 14 16.72 14 14 14 Z " fill="#F9AF06" transform="translate(312,205)"/>
<path d="M0 0 C4.62 0 9.24 0 14 0 C14.01981934 1.77157471 14.03963867 3.54314941 14.06005859 5.3684082 C14.12781336 11.21988947 14.20458748 17.07121495 14.28752708 22.92249775 C14.3374857 26.47034604 14.38381555 30.01816463 14.421875 33.56616211 C14.46578269 37.64456014 14.5254323 41.72259545 14.5859375 45.80078125 C14.59748871 47.07585037 14.60903992 48.35091949 14.62094116 49.66462708 C14.64081085 50.84562485 14.66068054 52.02662262 14.68115234 53.2434082 C14.69447601 54.28487503 14.70779968 55.32634186 14.7215271 56.39936829 C14.82217776 59.2348051 14.82217776 59.2348051 17 62 C20.56769552 62.73606499 20.56769552 62.73606499 24 63 C24 62.34 24 61.68 24 61 C24.66 61 25.32 61 26 61 C26 40.87 26 20.74 26 0 C30.95 0 35.9 0 41 0 C41.06803284 7.79795886 41.12296336 15.59575273 41.15543652 23.39392757 C41.17102948 27.01574248 41.19214953 30.63734214 41.22631836 34.2590332 C41.25914149 37.7603775 41.2769008 41.261516 41.28463173 44.7630024 C41.29279505 46.73537617 41.31617711 48.70766826 41.33988953 50.67991638 C41.34121158 57.80140412 40.71031224 63.39459082 38 70 C37.34 70 36.68 70 36 70 C35.835 70.598125 35.67 71.19625 35.5 71.8125 C33.15319348 75.23492618 29.88239815 76.10555769 26 77 C19.39218204 77.78487725 12.93647151 77.15595027 7 74 C3.05489942 70.56487583 0.19256366 66.33045763 -0.24050903 61.08929443 C-0.23606781 59.96122375 -0.23162659 58.83315308 -0.22705078 57.67089844 C-0.22689972 56.38987244 -0.22674866 55.10884644 -0.22659302 53.78900146 C-0.21638051 52.39579106 -0.20594853 51.00258224 -0.1953125 49.609375 C-0.19158064 48.18019814 -0.18873448 46.75101872 -0.18673706 45.32183838 C-0.17911419 41.56694429 -0.15947739 37.81220581 -0.1373291 34.05737305 C-0.11684159 30.22316594 -0.10772914 26.38893361 -0.09765625 22.5546875 C-0.0762301 15.0363793 -0.04105907 7.51823131 0 0 Z " fill="#FB9C03" transform="translate(216,205)"/>
<path d="M0 0 C6.6 0 13.2 0 20 0 C20.25394531 1.59328125 20.50789063 3.1865625 20.76953125 4.828125 C23.0367047 19.04314803 23.0367047 19.04314803 26.2890625 33.0546875 C27.38238798 37.58417878 28.06749612 42.17132876 28.79833984 46.77099609 C29.92265364 53.76231731 31.29765214 60.69286415 32.73022461 67.62695312 C32.89530518 68.43068359 33.06038574 69.23441406 33.23046875 70.0625 C33.37895264 70.77535156 33.52743652 71.48820312 33.68041992 72.22265625 C34 74 34 74 34 76 C29.38 76 24.76 76 20 76 C17 64.25 17 64.25 17 62 C12.38 62 7.76 62 3 62 C2.855625 63.381875 2.71125 64.76375 2.5625 66.1875 C2.21187864 69.54344726 1.66679456 72.6660272 1 76 C-3.62 76 -8.24 76 -13 76 C-12.37341598 69.97882596 -11.5787002 64.02941912 -10.5625 58.0625 C-10.37977539 56.96131836 -10.37977539 56.96131836 -10.19335938 55.83789062 C-9.38757723 51.04912315 -8.47514601 46.28829929 -7.51098633 41.52905273 C-4.72350645 27.73282529 -2.25882692 13.89178558 0 0 Z M10 25 C8.0343645 30.10404512 7.39987989 34.97992306 6.875 40.375 C6.78863281 41.20644531 6.70226562 42.03789062 6.61328125 42.89453125 C6.40281157 44.92907147 6.20056686 46.9644597 6 49 C8.64 49 11.28 49 14 49 C13.45423097 40.89963866 12.45852964 32.98651182 11 25 C10.67 25 10.34 25 10 25 Z " fill="#F4AC07" transform="translate(367,205)"/>
<path d="M0 0 C0.74886475 0.00523682 1.49772949 0.01047363 2.26928711 0.01586914 C3.07817383 0.0190918 3.88706055 0.02231445 4.72045898 0.02563477 C5.5705957 0.03401367 6.42073242 0.04239258 7.29663086 0.05102539 C8.15063477 0.05553711 9.00463867 0.06004883 9.88452148 0.06469727 C12.00108749 0.07652166 14.11761771 0.0944577 16.23413086 0.11352539 C17.6849936 4.91063327 18.73314966 9.59527794 19.54663086 14.55102539 C20.75979304 21.71213008 22.17483408 28.81907552 23.67163086 35.92602539 C23.88432617 36.94043701 24.09702148 37.95484863 24.31616211 39 C25.15664673 43.00408147 25.99884693 47.00776549 26.8503418 51.00952148 C27.42313741 53.70937336 27.98585771 56.41115475 28.54663086 59.11352539 C28.71799561 59.90734619 28.88936035 60.70116699 29.06591797 61.51904297 C30.08596471 66.48227923 30.38962426 71.04559218 30.23413086 76.11352539 C25.94413086 76.11352539 21.65413086 76.11352539 17.23413086 76.11352539 C14.77291652 71.19109672 14.66512836 67.57282706 14.23413086 62.11352539 C9.61413086 62.44352539 4.99413086 62.77352539 0.23413086 63.11352539 C-0.22993164 66.05258789 -0.22993164 66.05258789 -0.70336914 69.05102539 C-1.64086914 74.98852539 -1.64086914 74.98852539 -2.76586914 76.11352539 C-4.95226367 76.18611485 -7.14087303 76.19726322 -9.32836914 76.17602539 C-10.5259082 76.16700195 -11.72344727 76.15797852 -12.95727539 76.14868164 C-14.3475293 76.1312793 -14.3475293 76.1312793 -15.76586914 76.11352539 C-15.38095202 68.1231768 -14.35136534 60.5777599 -12.57446289 52.78149414 C-11.7609006 49.09098693 -11.08988712 45.4009738 -10.45336914 41.67602539 C-9.07863073 33.68705261 -7.5791949 25.72222765 -6.05215454 17.76119995 C-5.77809401 16.33009435 -5.50544835 14.89871706 -5.23422241 13.46707153 C-4.85020718 11.44220789 -4.46108627 9.41839136 -4.07055664 7.39477539 C-3.84352051 6.20948242 -3.61648438 5.02418945 -3.38256836 3.80297852 C-2.54809759 0.16381382 -2.54809759 0.16381382 0 0 Z M7.23413086 25.11352539 C4.32448248 32.8033104 2.86918904 40.90233444 3.23413086 49.11352539 C5.87413086 49.11352539 8.51413086 49.11352539 11.23413086 49.11352539 C10.52976838 41.06896442 9.41944581 33.10001644 8.23413086 25.11352539 C7.90413086 25.11352539 7.57413086 25.11352539 7.23413086 25.11352539 Z " fill="#FAAB03" transform="translate(418.765869140625,204.886474609375)"/>
<path d="M0 0 C4.62 0 9.24 0 14 0 C17.7109375 8.88671875 17.7109375 8.88671875 19 12 C19.36867188 12.85980469 19.73734375 13.71960938 20.1171875 14.60546875 C20.99643554 16.9903318 21.45559253 19.10521841 21.75 21.625 C21.89695312 22.75808594 21.89695312 22.75808594 22.046875 23.9140625 C22 26 22 26 20 29 C19.01 29 18.02 29 17 29 C17 30.32 17 31.64 17 33 C15.02 33.495 15.02 33.495 13 34 C13 47.53 13 61.06 13 75 C9.37 74.67 5.74 74.34 2 74 C1.01 74.495 1.01 74.495 0 75 C0 50.25 0 25.5 0 0 Z " fill="#F9B40C" transform="translate(263,205)"/>
<path d="M0 0 C4.62 0 9.24 0 14 0 C14.19825242 8.17938782 14.38373634 16.35875694 14.54658794 24.53891563 C14.62271576 28.33705154 14.7044935 32.13489238 14.79907227 35.93261719 C14.89009471 39.59581509 14.96642097 43.25904839 15.03244972 46.92277908 C15.06027885 48.3223683 15.09345442 49.7218615 15.13199425 51.12119675 C15.18495913 53.07705015 15.21737141 55.03342778 15.2487793 56.98974609 C15.27320602 58.1044931 15.29763275 59.21924011 15.32279968 60.36776733 C15.16301384 61.6707225 15.16301384 61.6707225 15 63 C12 65 12 65 10 65 C9.34 66.32 8.68 67.64 8 69 C7.01 69 6.02 69 5 69 C5 68.01 5 67.02 5 66 C4.34 66 3.68 66 3 66 C0.15386065 62.24727505 -0.36945173 59.48172785 -0.34057617 54.83276367 C-0.34034958 53.61187546 -0.34012299 52.39098724 -0.33988953 51.13310242 C-0.32440567 49.82460831 -0.30892181 48.5161142 -0.29296875 47.16796875 C-0.28736884 45.80748463 -0.2831006 44.44699443 -0.28010559 43.08650208 C-0.26868776 39.51729433 -0.23924765 35.94845671 -0.20599365 32.37939453 C-0.17522626 28.73279832 -0.16158606 25.08614191 -0.14648438 21.43945312 C-0.11437442 14.29280347 -0.06163198 7.14646493 0 0 Z " fill="#FBB101" transform="translate(216,205)"/>
<path d="M0 0 C3.3 0 6.6 0 10 0 C10.02318164 7.623554 10.0409448 15.24710434 10.05181217 22.87068558 C10.05702825 26.41071061 10.06410276 29.95071151 10.07543945 33.49072266 C10.08839423 37.56152578 10.09323876 41.63230359 10.09765625 45.703125 C10.10281754 46.97303284 10.10797882 48.24294067 10.11329651 49.55133057 C10.11337204 50.73225281 10.11344757 51.91317505 10.11352539 53.12988281 C10.115746 54.16912903 10.11796661 55.20837524 10.12025452 56.27911377 C10.01374985 58.68889498 9.69407081 60.70036807 9 63 C8.34 63 7.68 63 7 63 C7 63.66 7 64.32 7 65 C6.34 65 5.68 65 5 65 C5 66.32 5 67.64 5 69 C3.68 68.67 2.36 68.34 1 68 C1 66.35 1 64.7 1 63 C0.01 62.67 -0.98 62.34 -2 62 C-1.34 61.01 -0.68 60.02 0 59 C0.29080339 56.31088945 0.29080339 56.31088945 0.22705078 53.2434082 C0.22689972 52.06241043 0.22674866 50.88141266 0.22659302 49.66462708 C0.21627045 48.38955795 0.20594788 47.11448883 0.1953125 45.80078125 C0.1924826 44.49545944 0.18965271 43.19013763 0.18673706 41.84526062 C0.17910747 38.37804485 0.15946493 34.91099712 0.1373291 31.44384766 C0.11685605 27.90464552 0.10773223 24.36541618 0.09765625 20.82617188 C0.0762183 13.88404563 0.04209056 6.94203089 0 0 Z M-1 66 C-0.34 66 0.32 66 1 66 C0.67 66.66 0.34 67.32 0 68 C-0.33 67.34 -0.66 66.68 -1 66 Z " fill="#FDB000" transform="translate(245,207)"/>
<path d="M0 0 C9.75 0.75 9.75 0.75 12 3 C15.0737746 3.65399459 17.85599094 4 21 4 C21 4.99 21 5.98 21 7 C21.66 7.66 22.32 8.32 23 9 C22.34 9.33 21.68 9.66 21 10 C17.74446622 8.58395664 14.61786556 6.96303025 11.45703125 5.34765625 C7.69398027 3.88070417 4.99715817 3.89747829 1 4 C1.02094727 5.15000488 1.04189453 6.30000977 1.06347656 7.48486328 C1.13609063 11.76745056 1.18187729 16.04998383 1.21972656 20.33300781 C1.23979339 22.18368696 1.26705345 24.03430309 1.30175781 25.88476562 C1.35049433 28.55093977 1.37301787 31.21627287 1.390625 33.8828125 C1.41127014 34.70492218 1.43191528 35.52703186 1.45318604 36.37405396 C1.4552617 41.73529213 0.54732283 44.73510159 -3 49 C-6.19879429 51.34578248 -9.10652889 51.47675156 -13 51 C-15.875 49.75 -15.875 49.75 -18 47 C-18.65510427 42.92126387 -18.79972223 39.05927974 -18 35 C-14.39762502 30.24000789 -10.62729791 29.99305257 -5 29 C-5.33 23.72 -5.66 18.44 -6 13 C-11.58176376 15.37005614 -11.58176376 15.37005614 -17 18 C-17 17.34 -17 16.68 -17 16 C-16.34 16 -15.68 16 -15 16 C-15 15.01 -15 14.02 -15 13 C-13.68 13 -12.36 13 -11 13 C-10.34 11.68 -9.68 10.36 -9 9 C-7.35 9 -5.7 9 -4 9 C-2.68 6.03 -1.36 3.06 0 0 Z " fill="#F1B20C" transform="translate(98,192)"/>
<path d="M0 0 C3.36720387 1.39332574 4.9859524 2.9789286 7 6 C7.66 5.34 8.32 4.68 9 4 C9.495 4.99 9.495 4.99 10 6 C9.05016642 7.50539661 8.08988109 9.00420347 7.125 10.5 C6.59132812 11.3353125 6.05765625 12.170625 5.5078125 13.03125 C5.01023438 13.6809375 4.51265625 14.330625 4 15 C3.34 15 2.68 15 2 15 C1.731875 15.57234375 1.46375 16.1446875 1.1875 16.734375 C-0.04132636 19.07884634 -1.42522176 21.12404938 -3 23.25 C-3.515625 23.95640625 -4.03125 24.6628125 -4.5625 25.390625 C-5.036875 25.92171875 -5.51125 26.4528125 -6 27 C-6.66 27 -7.32 27 -8 27 C-8.268125 27.57234375 -8.53625 28.1446875 -8.8125 28.734375 C-10.04132636 31.07884634 -11.42522176 33.12404938 -13 35.25 C-13.515625 35.95640625 -14.03125 36.6628125 -14.5625 37.390625 C-15.036875 37.92171875 -15.51125 38.4528125 -16 39 C-16.66 39 -17.32 39 -18 39 C-18 39.66 -18 40.32 -18 41 C-18.66 41 -19.32 41 -20 41 C-20.33 41.99 -20.66 42.98 -21 44 C-21.495 42.515 -21.495 42.515 -22 41 C-21.54625 40.2575 -21.0925 39.515 -20.625 38.75 C-18.69376054 35.48174861 -18.36725367 32.74598743 -18 29 C-16 29 -14 29 -12 29 C-11.67 28.34 -11.34 27.68 -11 27 C-11.66 27 -12.32 27 -13 27 C-13.25 21.375 -13.25 21.375 -11 18 C-15.83842472 17.43389546 -18.04082085 19.09171728 -21.8125 22 C-23.27623047 23.11375 -23.27623047 23.11375 -24.76953125 24.25 C-25.50558594 24.8275 -26.24164063 25.405 -27 26 C-27.66 25.67 -28.32 25.34 -29 25 C-28.16855469 24.24074219 -27.33710937 23.48148437 -26.48046875 22.69921875 C-25.38277925 21.69534886 -24.28512484 20.6914406 -23.1875 19.6875 C-22.64029297 19.18798828 -22.09308594 18.68847656 -21.52929688 18.17382812 C-18.31255724 15.23247907 -18.31255724 15.23247907 -15.23828125 12.14453125 C-14 11 -14 11 -12 11 C-12 10.34 -12 9.68 -12 9 C-11.34 9 -10.68 9 -10 9 C-9.7525 8.236875 -9.505 7.47375 -9.25 6.6875 C-7.89004442 3.7635955 -6.68414174 2.69995644 -4 1 C-4.33 2.65 -4.66 4.3 -5 6 C-3.35 4.02 -1.7 2.04 0 0 Z " fill="#F49C06" transform="translate(133,252)"/>
<path d="M0 0 C3.12948909 1.65957755 4.10090563 3.17864578 5.828125 6.2421875 C6.32828125 7.10585937 6.8284375 7.96953125 7.34375 8.859375 C10.76181482 15.80367125 10.88524385 25.1881196 8.640625 32.5546875 C6.17525118 38.1017786 1.08210767 44.8908259 -4.58203125 47.27734375 C-5.18917969 47.30699219 -5.79632813 47.33664062 -6.421875 47.3671875 C-7.081875 46.7071875 -7.741875 46.0471875 -8.421875 45.3671875 C-8.421875 44.0471875 -8.421875 42.7271875 -8.421875 41.3671875 C-7.761875 41.3671875 -7.101875 41.3671875 -6.421875 41.3671875 C-6.421875 40.7071875 -6.421875 40.0471875 -6.421875 39.3671875 C-5.761875 39.3671875 -5.101875 39.3671875 -4.421875 39.3671875 C-4.421875 38.7071875 -4.421875 38.0471875 -4.421875 37.3671875 C-3.761875 37.3671875 -3.101875 37.3671875 -2.421875 37.3671875 C-1.98875 36.5009375 -1.98875 36.5009375 -1.546875 35.6171875 C-0.421875 33.3671875 -0.421875 33.3671875 0.6171875 31.67578125 C2.84483189 26.32400143 2.28008728 20.02383354 1.578125 14.3671875 C0.2675151 11.62786042 -1.12623337 9.5829966 -3.109375 7.296875 C-4.7697874 4.85567344 -4.66198702 3.25853641 -4.421875 0.3671875 C-2.421875 -0.6328125 -2.421875 -0.6328125 0 0 Z " fill="#B48F17" transform="translate(112.421875,212.6328125)"/>
<path d="M0 0 C0.74886475 0.00523682 1.49772949 0.01047363 2.26928711 0.01586914 C3.07817383 0.0190918 3.88706055 0.02231445 4.72045898 0.02563477 C5.5705957 0.03401367 6.42073242 0.04239258 7.29663086 0.05102539 C8.15063477 0.05553711 9.00463867 0.06004883 9.88452148 0.06469727 C12.00108749 0.07652166 14.11761771 0.0944577 16.23413086 0.11352539 C17.50149646 4.28140657 18.50215105 8.20777099 18.85913086 12.55102539 C18.93389648 13.41598633 19.00866211 14.28094727 19.08569336 15.17211914 C19.13467773 15.8127832 19.18366211 16.45344727 19.23413086 17.11352539 C16.23413086 15.11352539 16.23413086 15.11352539 15.57397461 12.54711914 C15.37481445 11.06405273 15.37481445 11.06405273 15.17163086 9.55102539 C14.8123402 6.62975727 14.8123402 6.62975727 14.23413086 4.11352539 C10.12778928 2.0603546 5.52204629 2.70248855 1.29663086 4.05102539 C-1.4523813 6.80003755 -1.40200029 8.87684904 -1.52758789 12.66430664 C-1.76586914 15.11352539 -1.76586914 15.11352539 -2.71508789 17.94555664 C-3.88199192 21.46362047 -4.40590847 24.8166803 -4.89086914 28.48852539 C-5.05844727 29.73375977 -5.22602539 30.97899414 -5.39868164 32.26196289 C-5.51985352 33.20297852 -5.64102539 34.14399414 -5.76586914 35.11352539 C-6.42586914 35.11352539 -7.08586914 35.11352539 -7.76586914 35.11352539 C-7.69625977 36.06485352 -7.69625977 36.06485352 -7.62524414 37.03540039 C-7.22578406 47.36429669 -9.5275525 57.08277128 -11.76586914 67.11352539 C-11.10586914 67.44352539 -10.44586914 67.77352539 -9.76586914 68.11352539 C-10.75586914 69.76352539 -11.74586914 71.41352539 -12.76586914 73.11352539 C-10.78586914 73.11352539 -8.80586914 73.11352539 -6.76586914 73.11352539 C-6.76586914 72.45352539 -6.76586914 71.79352539 -6.76586914 71.11352539 C-5.77586914 70.61852539 -5.77586914 70.61852539 -4.76586914 70.11352539 C-4.0442749 68.46989405 -3.37235493 66.80302153 -2.76586914 65.11352539 C-2.43586914 65.11352539 -2.10586914 65.11352539 -1.76586914 65.11352539 C-1.73898763 66.75927105 -1.71952791 68.40513952 -1.70336914 70.05102539 C-1.69176758 70.96754883 -1.68016602 71.88407227 -1.66821289 72.82836914 C-1.76586914 75.11352539 -1.76586914 75.11352539 -2.76586914 76.11352539 C-4.95226367 76.18611485 -7.14087303 76.19726322 -9.32836914 76.17602539 C-10.5259082 76.16700195 -11.72344727 76.15797852 -12.95727539 76.14868164 C-14.3475293 76.1312793 -14.3475293 76.1312793 -15.76586914 76.11352539 C-15.38095202 68.1231768 -14.35136534 60.5777599 -12.57446289 52.78149414 C-11.7609006 49.09098693 -11.08988712 45.4009738 -10.45336914 41.67602539 C-9.07863073 33.68705261 -7.5791949 25.72222765 -6.05215454 17.76119995 C-5.77809401 16.33009435 -5.50544835 14.89871706 -5.23422241 13.46707153 C-4.85020718 11.44220789 -4.46108627 9.41839136 -4.07055664 7.39477539 C-3.84352051 6.20948242 -3.61648438 5.02418945 -3.38256836 3.80297852 C-2.54809759 0.16381382 -2.54809759 0.16381382 0 0 Z " fill="#D0AA20" transform="translate(418.765869140625,204.886474609375)"/>
<path d="M0 0 C0.99 0.33 1.98 0.66 3 1 C2.34 1 1.68 1 1 1 C1 25.42 1 49.84 1 75 C8.59 74.67 16.18 74.34 24 74 C24 73.01 24 72.02 24 71 C25.98 71 27.96 71 30 71 C30 69.35 30 67.7 30 66 C30.66 66 31.32 66 32 66 C32 65.34 32 64.68 32 64 C33.65 64 35.3 64 37 64 C37.84110031 57.45455156 38.13481564 51.09092557 38.09765625 44.49609375 C38.0962413 43.5322023 38.09482635 42.56831085 38.09336853 41.57521057 C38.08781942 38.52927402 38.07527669 35.48341393 38.0625 32.4375 C38.05747841 30.35872503 38.05291666 28.27994889 38.04882812 26.20117188 C38.03786671 21.13408561 38.0206378 16.06705572 38 11 C37.34 11 36.68 11 36 11 C36.33 9.68 36.66 8.36 37 7 C40.41357693 13.45100348 41.59915945 18.70649299 41.53125 25.96875 C41.5350769 26.88910034 41.53890381 27.80945068 41.54284668 28.75769043 C41.54555109 30.69052229 41.5382938 32.62339168 41.52148438 34.55615234 C41.50005326 37.49270231 41.52133616 40.42680619 41.546875 43.36328125 C41.54423146 45.2526095 41.53910595 47.14193624 41.53125 49.03125 C41.53934692 49.89713745 41.54744385 50.7630249 41.55578613 51.65515137 C41.43819882 59.40652186 39.38649331 65.9405217 33.75 71.4375 C25.15183949 78.90768401 9.3067356 76 0 76 C0 50.92 0 25.84 0 0 Z " fill="#A18118" transform="translate(312,205)"/>
<path d="M0 0 C0 20.13 0 40.26 0 61 C-0.66 61 -1.32 61 -2 61 C-2 41.53 -2 22.06 -2 2 C-5.3 2 -8.6 2 -12 2 C-11.98839844 3.45664063 -11.97679687 4.91328125 -11.96484375 6.4140625 C-11.87556901 23.29954333 -12.34303715 40.13038224 -13 57 C-13.33 57 -13.66 57 -14 57 C-14 38.52 -14 20.04 -14 1 C-11 0 -11 0 0 0 Z " fill="#D3AE2C" transform="translate(257,205)"/>
<path d="M0 0 C4.62 0 9.24 0 14 0 C14 20.13 14 40.26 14 61 C13.01 60.67 12.02 60.34 11 60 C10.80587819 58.52168779 10.61987869 57.04230684 10.4375 55.5625 C10.28087891 54.32693359 10.28087891 54.32693359 10.12109375 53.06640625 C10.08113281 52.38449219 10.04117188 51.70257813 10 51 C10.495 50.505 10.495 50.505 11 50 C11.09304018 48.52645652 11.11746265 47.04849409 11.11352539 45.57202148 C11.11344986 44.63112167 11.11337433 43.69022186 11.11329651 42.72080994 C11.10813522 41.69790359 11.10297394 40.67499725 11.09765625 39.62109375 C11.09553383 38.058395 11.09553383 38.058395 11.09336853 36.46412659 C11.0877508 33.12188906 11.0751953 29.77971743 11.0625 26.4375 C11.05748728 24.17773534 11.05292398 21.91796963 11.04882812 19.65820312 C11.03777561 14.10544318 11.0204991 8.55273278 11 3 C7.7 2.67 4.4 2.34 1 2 C1 21.47 1 40.94 1 61 C0.67 61 0.34 61 0 61 C0 40.87 0 20.74 0 0 Z " fill="#D9AF23" transform="translate(216,205)"/>
<path d="M0 0 C9.75 0.75 9.75 0.75 12 3 C15.0737746 3.65399459 17.85599094 4 21 4 C21 4.99 21 5.98 21 7 C21.66 7.66 22.32 8.32 23 9 C22.34 9.33 21.68 9.66 21 10 C17.74446622 8.58395664 14.61786556 6.96303025 11.45703125 5.34765625 C7.53141125 3.5762571 7.53141125 3.5762571 1 4 C1 14.56 1 25.12 1 36 C0.67 36 0.34 36 0 36 C-0.495 26.1 -0.495 26.1 -1 16 C-1.66 16 -2.32 16 -3 16 C-3 20.62 -3 25.24 -3 30 C-3.66 30 -4.32 30 -5 30 C-5.33 24.39 -5.66 18.78 -6 13 C-11.58176376 15.37005614 -11.58176376 15.37005614 -17 18 C-17 17.34 -17 16.68 -17 16 C-16.34 16 -15.68 16 -15 16 C-15 15.01 -15 14.02 -15 13 C-13.68 13 -12.36 13 -11 13 C-10.34 11.68 -9.68 10.36 -9 9 C-7.35 9 -5.7 9 -4 9 C-2.68 6.03 -1.36 3.06 0 0 Z " fill="#C39F12" transform="translate(98,192)"/>
<path d="M0 0 C4.95 0 9.9 0 15 0 C15 25.08 15 50.16 15 76 C10.38 76 5.76 76 1 76 C1 75.67 1 75.34 1 75 C5.29 75 9.58 75 14 75 C13.67 50.91 13.34 26.82 13 2 C9.37 2 5.74 2 2 2 C2.01047363 2.89307861 2.02094727 3.78615723 2.03173828 4.70629883 C2.06583592 8.02175477 2.09090637 11.33702421 2.10986328 14.65258789 C2.119917 16.08718812 2.13356194 17.52176789 2.15087891 18.95629883 C2.17515549 21.01909438 2.18648919 23.08161885 2.1953125 25.14453125 C2.20578613 26.38565674 2.21625977 27.62678223 2.22705078 28.90551758 C2 32 2 32 0 35 C0 23.45 0 11.9 0 0 Z " fill="#967B17" transform="translate(291,205)"/>
<path d="M0 0 C0.99 0 1.98 0 3 0 C3 0.66 3 1.32 3 2 C3.66 2 4.32 2 5 2 C7.6009653 10.10165541 6.51977661 15.34957647 3 23 C2.34 23 1.68 23 1 23 C1 23.66 1 24.32 1 25 C-0.65 24.67 -2.3 24.34 -4 24 C-4.27014652 20.84829059 -4.21698962 19.34356689 -2.5 16.625 C0.16649853 11.95862757 -0.77430448 7.05599401 -2 2 C-1.34 2 -0.68 2 0 2 C0 1.34 0 0.68 0 0 Z " fill="#F1B515" transform="translate(104,223)"/>
<path d="M0 0 C0.66 0 1.32 0 2 0 C1.33182164 5.70870833 0.46165521 11.34509513 -0.5625 17 C-0.70107422 17.77472656 -0.83964844 18.54945313 -0.98242188 19.34765625 C-1.31976121 21.23210355 -1.65961365 23.1161007 -2 25 C-1.34 25.33 -0.68 25.66 0 26 C-1.485 28.475 -1.485 28.475 -3 31 C-1.02 31 0.96 31 3 31 C3 30.34 3 29.68 3 29 C3.66 28.67 4.32 28.34 5 28 C5.72159424 26.35636866 6.39351421 24.68949614 7 23 C7.33 23 7.66 23 8 23 C8.02688151 24.64574566 8.04634123 26.29161413 8.0625 27.9375 C8.07410156 28.85402344 8.08570313 29.77054687 8.09765625 30.71484375 C8 33 8 33 7 34 C4.81360547 34.07258946 2.62499611 34.08373783 0.4375 34.0625 C-1.35880859 34.04896484 -1.35880859 34.04896484 -3.19140625 34.03515625 C-4.11824219 34.02355469 -5.04507812 34.01195312 -6 34 C-5.438293 22.33973735 -3.45228178 11.15352574 0 0 Z " fill="#E89812" transform="translate(409,247)"/>
<path d="M0 0 C0.33 0 0.66 0 1 0 C1.19577637 1.1152002 1.19577637 1.1152002 1.39550781 2.25292969 C3.73945168 15.5735914 6.09106451 28.88597003 8.83105469 42.13183594 C10 47.8113062 10 47.8113062 10 50 C5.38 50 0.76 50 -4 50 C-7.125 38.25 -7.125 38.25 -6 36 C-5.34 36.33 -4.68 36.66 -4 37 C-2.71682108 40.84953676 -2.93356363 43.94738135 -3 48 C1.34184202 47.81535634 1.34184202 47.81535634 5 46 C5.09900199 44.02287193 5.12970773 42.04209962 5.125 40.0625 C5.12757813 38.98097656 5.13015625 37.89945312 5.1328125 36.78515625 C5.19007789 34.04340337 5.19007789 34.04340337 4 32 C3.77532169 30.46331135 3.59203195 28.92031946 3.4375 27.375 C3.35371094 26.55773437 3.26992188 25.74046875 3.18359375 24.8984375 C3.12300781 24.27195313 3.06242187 23.64546875 3 23 C2.67 23 2.34 23 2 23 C1.93941406 22.28972656 1.87882812 21.57945312 1.81640625 20.84765625 C1.73261719 19.92855469 1.64882813 19.00945312 1.5625 18.0625 C1.48128906 17.14597656 1.40007812 16.22945312 1.31640625 15.28515625 C1.23955024 13.03840268 1.23955024 13.03840268 0 12 C-0.07244053 9.98035801 -0.08377188 7.95832876 -0.0625 5.9375 C-0.05347656 4.83277344 -0.04445313 3.72804687 -0.03515625 2.58984375 C-0.02355469 1.73519531 -0.01195312 0.88054687 0 0 Z " fill="#B77D1E" transform="translate(391,231)"/>
<path d="M0 0 C0.99 0.33 1.98 0.66 3 1 C3 2.32 3 3.64 3 5 C3.66 5 4.32 5 5 5 C5 5.99 5 6.98 5 8 C5.99 8 6.98 8 8 8 C8 8.99 8 9.98 8 11 C9.32 11 10.64 11 12 11 C12 11.66 12 12.32 12 13 C17.94 13 23.88 13 30 13 C30 12.01 30 11.02 30 10 C31.32 10 32.64 10 34 10 C34 8.68 34 7.36 34 6 C34.66 6 35.32 6 36 6 C36 5.34 36 4.68 36 4 C36.66 4 37.32 4 38 4 C38 2.68 38 1.36 38 0 C38.66 0 39.32 0 40 0 C39.125 6.75 39.125 6.75 38 9 C37.34 9 36.68 9 36 9 C35.835 9.598125 35.67 10.19625 35.5 10.8125 C33.15319348 14.23492618 29.88239815 15.10555769 26 16 C19.39218204 16.78487725 12.93647151 16.15595027 7 13 C3.8820843 10.28513194 1.46900489 6.87283107 0 3 C0 2.01 0 1.02 0 0 Z " fill="#CA8E1F" transform="translate(216,266)"/>
<path d="M0 0 C1.32 0.33 2.64 0.66 4 1 C3.01 1 2.02 1 1 1 C1.33 9.58 1.66 18.16 2 27 C2.33 27 2.66 27 3 27 C3.33 38.55 3.66 50.1 4 62 C2.02 62.495 2.02 62.495 0 63 C0 63.66 0 64.32 0 65 C-3.63 65 -7.26 65 -11 65 C-11.33 63.02 -11.66 61.04 -12 59 C-11.649375 59.474375 -11.29875 59.94875 -10.9375 60.4375 C-8.15836457 62.67873825 -5.4855283 62.67117658 -2 63 C-2 62.34 -2 61.68 -2 61 C-1.34 61 -0.68 61 0 61 C0 40.87 0 20.74 0 0 Z " fill="#805906" transform="translate(242,205)"/>
<path d="M0 0 C0.33 0.99 0.66 1.98 1 3 C2.49985609 4.66710346 2.49985609 4.66710346 4 6 C1 8 1 8 -1 8 C-1 8.66 -1 9.32 -1 10 C-3 9 -3 9 -5 7 C-5.33 7.99 -5.66 8.98 -6 10 C-6.474375 9.195625 -6.94875 8.39125 -7.4375 7.5625 C-8.76900154 5.15246512 -8.76900154 5.15246512 -10 4 C-12.64 3.67 -15.28 3.34 -18 3 C-18 19.17 -18 35.34 -18 52 C-18.33 52 -18.66 52 -19 52 C-19 35.5 -19 19 -19 2 C-12.91153153 1.39115315 -7.91974254 1 -2 1 C-1.34 0.67 -0.68 0.34 0 0 Z " fill="#B98B05" transform="translate(344,216)"/>
<path d="M0 0 C0 0.66 0 1.32 0 2 C0.66 2 1.32 2 2 2 C2 2.66 2 3.32 2 4 C2.66 4.33 3.32 4.66 4 5 C3.67 5.99 3.34 6.98 3 8 C2.96079185 9.99961564 2.95556653 12.00049364 3 14 C6.3 14 9.6 14 13 14 C12.67 12.96875 12.34 11.9375 12 10.875 C11.0284808 7.51573291 10.82883229 4.50893798 11 1 C11.66 0.67 12.32 0.34 13 0 C14.59162079 5.57067277 15.20674944 10.21101581 15 16 C10.71 16 6.42 16 2 16 C-0.46121433 11.07757133 -0.5690025 7.45930167 -1 2 C-5.95 2.33 -10.9 2.66 -16 3 C-16 2.34 -16 1.68 -16 1 C-14.08351538 0.83125293 -12.16680367 0.66508357 -10.25 0.5 C-9.18265625 0.4071875 -8.1153125 0.314375 -7.015625 0.21875 C-4.6820782 0.04947717 -2.33967818 0 0 0 Z " fill="#D19523" transform="translate(434,265)"/>
<path d="M0 0 C0.33 0 0.66 0 1 0 C1.9977542 6.60103603 1.8259507 12.03019105 0.5625 18.5625 C0.41490234 19.38041016 0.26730469 20.19832031 0.11523438 21.04101562 C-0.2452367 23.02942057 -0.62099551 25.01504428 -1 27 C1.64 27 4.28 27 7 27 C6.855625 26.35933594 6.71125 25.71867187 6.5625 25.05859375 C5.45964509 19.91959623 4.77160689 15.25304157 5 10 C5.66 10 6.32 10 7 10 C7.36372387 12.24847481 7.71564096 14.49886188 8.0625 16.75 C8.25972656 18.00296875 8.45695312 19.2559375 8.66015625 20.546875 C9 24 9 24 8 28 C4.37 28 0.74 28 -3 28 C-3.185625 26.576875 -3.185625 26.576875 -3.375 25.125 C-3.71687177 21.91332809 -3.71687177 21.91332809 -6 20 C-5.34 19.34 -4.68 18.68 -4 18 C-3.59952556 15.67724823 -3.2602896 13.34260643 -3 11 C-2.01 11.33 -1.02 11.66 0 12 C0 8.04 0 4.08 0 0 Z " fill="#D49E17" transform="translate(423,227)"/>
<path d="M0 0 C3.63 0.33 7.26 0.66 11 1 C11 1.33 11 1.66 11 2 C8.36 2 5.72 2 3 2 C3 18.5 3 35 3 52 C4.485 51.505 4.485 51.505 6 51 C6.66 51.66 7.32 52.32 8 53 C4.98968256 53.93423645 4.13349732 54.04449911 1 53 C1.00523682 52.35377686 1.01047363 51.70755371 1.01586914 51.04174805 C1.13409479 34.0007932 0.74597956 17.02431935 0 0 Z " fill="#F2B616" transform="translate(322,216)"/>
<path d="M0 0 C0.66 0.33 1.32 0.66 2 1 C2.05395478 2.62463842 2.09277195 4.24978541 2.125 5.875 C2.14820313 6.77992188 2.17140625 7.68484375 2.1953125 8.6171875 C2 11 2 11 0 13 C-3.625 13.125 -3.625 13.125 -7 13 C-7.08086147 11.20906809 -7.13912702 9.41710372 -7.1875 7.625 C-7.22230469 6.62726563 -7.25710938 5.62953125 -7.29296875 4.6015625 C-7.14794922 3.31378906 -7.14794922 3.31378906 -7 2 C-4 0 -4 0 0 0 Z " fill="#FB9C02" transform="translate(395,266)"/>
<path d="M0 0 C2 2 2 2 2 6 C1.34 6 0.68 6 0 6 C0.26676204 7.98491642 0.26676204 7.98491642 1 10 C1.99 10.33 2.98 10.66 4 11 C4.33 13.31 4.66 15.62 5 18 C1.7 18 -1.6 18 -5 18 C-5.33 15.36 -5.66 12.72 -6 10 C-4.68 9.67 -3.36 9.34 -2 9 C-1.855625 7.700625 -1.71125 6.40125 -1.5625 5.0625 C-1.125 1.125 -1.125 1.125 0 0 Z " fill="#FB9C01" transform="translate(442,261)"/>
<path d="M0 0 C0 0.66 0 1.32 0 2 C-0.99 2 -1.98 2 -3 2 C-3.66 3.32 -4.32 4.64 -5 6 C-6.98 6 -8.96 6 -11 6 C-11.2475 6.556875 -11.495 7.11375 -11.75 7.6875 C-13.25686838 10.47520651 -14.8181426 12.69346503 -17 15 C-19.75 15.8125 -19.75 15.8125 -22 16 C-22.33 16.99 -22.66 17.98 -23 19 C-24.4375 20.6875 -24.4375 20.6875 -26 22 C-26.66 22 -27.32 22 -28 22 C-26.87548273 19.0280615 -25.77706209 16.66559313 -24 14 C-23.34 14 -22.68 14 -22 14 C-22 13.34 -22 12.68 -22 12 C-21.071875 11.87625 -21.071875 11.87625 -20.125 11.75 C-19.42375 11.5025 -18.7225 11.255 -18 11 C-17.72671875 10.39027344 -17.4534375 9.78054687 -17.171875 9.15234375 C-15.6342543 6.32824706 -13.89233216 5.40966945 -11.125 3.8125 C-10.26132813 3.30332031 -9.39765625 2.79414063 -8.5078125 2.26953125 C-5.60984517 0.80249171 -3.24461606 0 0 0 Z " fill="#ECC117" transform="translate(87,183)"/>
<path d="M0 0 C1.32 0.66 2.64 1.32 4 2 C2.625 4 2.625 4 1 6 C0.34 6 -0.32 6 -1 6 C-2.73675442 13.20482485 -3.28311055 19.97776259 -3.1875 27.375 C-3.18685547 28.34566406 -3.18621094 29.31632812 -3.18554688 30.31640625 C-3.24204934 35.30676716 -3.24204934 35.30676716 -2.36450195 40.17822266 C-2.24421631 40.77940918 -2.12393066 41.3805957 -2 42 C-2.66 42.66 -3.32 43.32 -4 44 C-8.76716716 31.92317652 -7.7406364 18.23773082 -3.03515625 6.33984375 C-2.08419318 4.19030837 -1.07604623 2.08936331 0 0 Z " fill="#BE9821" transform="translate(57,205)"/>
<path d="M0 0 C1.32 0.66 2.64 1.32 4 2 C3.67 2.66 3.34 3.32 3 4 C2.34 4 1.68 4 1 4 C0.731875 4.57234375 0.46375 5.1446875 0.1875 5.734375 C-1.04132636 8.07884634 -2.42522176 10.12404938 -4 12.25 C-4.515625 12.95640625 -5.03125 13.6628125 -5.5625 14.390625 C-6.036875 14.92171875 -6.51125 15.4528125 -7 16 C-7.66 16 -8.32 16 -9 16 C-9 16.66 -9 17.32 -9 18 C-9.66 18 -10.32 18 -11 18 C-11.33 18.99 -11.66 19.98 -12 21 C-12.33 20.01 -12.66 19.02 -13 18 C-12.319375 16.88625 -12.319375 16.88625 -11.625 15.75 C-9.69376054 12.48174861 -9.36725367 9.74598743 -9 6 C-7 6 -5 6 -3 6 C-2.67 5.01 -2.34 4.02 -2 3 C-1.34 2.67 -0.68 2.34 0 2 C0 1.34 0 0.68 0 0 Z " fill="#ED990D" transform="translate(124,275)"/>
<path d="M0 0 C0 0.99 0 1.98 0 3 C0.66 3 1.32 3 2 3 C1.67 4.65 1.34 6.3 1 8 C0.731875 7.38125 0.46375 6.7625 0.1875 6.125 C-0.95556848 3.7004767 -0.95556848 3.7004767 -4 2 C-6.64 1.67 -9.28 1.34 -12 1 C-12 17.17 -12 33.34 -12 50 C-12.33 50 -12.66 50 -13 50 C-13 33.5 -13 17 -13 0 C-4 -1.125 -4 -1.125 0 0 Z " fill="#C59D38" transform="translate(195,218)"/>
<path d="M0 0 C2 4 2 4 1.5 7.3125 C-0.42096432 12.03487063 -3.30400271 16.65200136 -8 19 C-9.99960012 19.039992 -12.00047242 19.04346799 -14 19 C-14 18.01 -14 17.02 -14 16 C-12.02 16 -10.04 16 -8 16 C-8 14.35 -8 12.7 -8 11 C-7.34 11 -6.68 11 -6 11 C-6 10.34 -6 9.68 -6 9 C-4.35 9 -2.7 9 -1 9 C-0.67 6.03 -0.34 3.06 0 0 Z " fill="#DC9615" transform="translate(350,260)"/>
<path d="M0 0 C0.33 0.66 0.66 1.32 1 2 C1.58523437 2.12890625 2.17046875 2.2578125 2.7734375 2.390625 C5.7397665 3.20246241 7.33622128 4.71382896 9.625 6.75 C10.40101563 7.42546875 11.17703125 8.1009375 11.9765625 8.796875 C14.10503062 11.11435767 15.03404141 13.02941768 16 16 C13.08482708 14.92598892 11.22189824 14.22189824 9 12 C8.01 11.773125 7.02 11.54625 6 11.3125 C5.01 10.879375 4.02 10.44625 3 10 C1.625 6.375 1.625 6.375 1 3 C0.34 3 -0.32 3 -1 3 C-0.67 2.01 -0.34 1.02 0 0 Z " fill="#C5A615" transform="translate(126,188)"/>
<path d="M0 0 C2 1 2 1 3.1171875 2.98046875 C4.33162369 7.1342704 4.21326148 11.01145001 4.125 15.3125 C4.11597656 16.14845703 4.10695312 16.98441406 4.09765625 17.84570312 C4.07420989 19.89725969 4.03834266 21.94866777 4 24 C3.34 24 2.68 24 2 24 C2.0825 24.721875 2.165 25.44375 2.25 26.1875 C1.92573441 29.83548794 0.42680413 31.34568298 -2 34 C-2.66 33.67 -3.32 33.34 -4 33 C-3.54625 32.154375 -3.0925 31.30875 -2.625 30.4375 C2.00191773 20.64978942 2.01469531 10.58923853 0 0 Z " fill="#B68F20" transform="translate(133,218)"/>
<path d="M0 0 C0.33 0.66 0.66 1.32 1 2 C0.06553465 4.03144641 -0.93224776 6.03533587 -2 8 C-2.66 8 -3.32 8 -4 8 C-4 8.66 -4 9.32 -4 10 C-4.66 10 -5.32 10 -6 10 C-6.33 10.99 -6.66 11.98 -7 13 C-10.31253579 16.69111131 -13.83316434 19.34031766 -18 22 C-19.34175973 22.98866506 -20.67896002 23.9838154 -22 25 C-22.66 24.67 -23.32 24.34 -24 24 C-23.16855469 23.24074219 -22.33710937 22.48148437 -21.48046875 21.69921875 C-20.38277925 20.69534886 -19.28512484 19.6914406 -18.1875 18.6875 C-17.64029297 18.18798828 -17.09308594 17.68847656 -16.52929688 17.17382812 C-13.31255724 14.23247907 -13.31255724 14.23247907 -10.23828125 11.14453125 C-9 10 -9 10 -7 10 C-7 9.34 -7 8.68 -7 8 C-6.34 8 -5.68 8 -5 8 C-4.731875 7.236875 -4.46375 6.47375 -4.1875 5.6875 C-3.05575888 3.12619116 -2.08776599 1.80307062 0 0 Z " fill="#AB7B16" transform="translate(128,253)"/>
<path d="M0 0 C0.99 0 1.98 0 3 0 C3 0.66 3 1.32 3 2 C4.65 2.33 6.3 2.66 8 3 C8 4.32 8 5.64 8 7 C8.66 7 9.32 7 10 7 C9.67 9.31 9.34 11.62 9 14 C8.34 13.67 7.68 13.34 7 13 C7 12.34 7 11.68 7 11 C6.01 10.67 5.02 10.34 4 10 C4 9.34 4 8.68 4 8 C3.34 8 2.68 8 2 8 C1.67 8.66 1.34 9.32 1 10 C0.22157062 6.59437148 -0.09978121 3.49234244 0 0 Z " fill="#FBBD05" transform="translate(340,209)"/>
<path d="M0 0 C1.32 0.66 2.64 1.32 4 2 C2.78890086 3.51462522 1.55535932 5.01132562 0.3125 6.5 C-0.71423828 7.75296875 -0.71423828 7.75296875 -1.76171875 9.03125 C-4 11 -4 11 -6.76953125 11.28125 C-7.50558594 11.1884375 -8.24164063 11.095625 -9 11 C-9.33 10.01 -9.66 9.02 -10 8 C-10.66 7.67 -11.32 7.34 -12 7 C-11.01 6.67 -10.02 6.34 -9 6 C-9 4.68 -9 3.36 -9 2 C-7.68 2.33 -6.36 2.66 -5 3 C-5 3.66 -5 4.32 -5 5 C-3.35 4.67 -1.7 4.34 0 4 C0 2.68 0 1.36 0 0 Z " fill="#D38813" transform="translate(107,295)"/>
<path d="M0 0 C0 0.66 0 1.32 0 2 C-1.32 2.33 -2.64 2.66 -4 3 C-4.19672365 4.72814161 -4.38196799 6.45759197 -4.5625 8.1875 C-4.66691406 9.15042969 -4.77132812 10.11335937 -4.87890625 11.10546875 C-4.99758751 13.94233377 -4.67765639 16.25423671 -4 19 C-7.875 18.125 -7.875 18.125 -9 17 C-9.17830165 15.06791163 -9.26793417 13.12728628 -9.3125 11.1875 C-9.34988281 10.12917969 -9.38726562 9.07085937 -9.42578125 7.98046875 C-8.90246863 4.31728043 -7.88889243 3.23303577 -5 1 C-2 0 -2 0 0 0 Z " fill="#DEAB17" transform="translate(89,222)"/>
<path d="M0 0 C0.99 0.33 1.98 0.66 3 1 C3 2.32 3 3.64 3 5 C3.66 5 4.32 5 5 5 C5 5.99 5 6.98 5 8 C5.99 8 6.98 8 8 8 C8 8.99 8 9.98 8 11 C9.32 11 10.64 11 12 11 C12 11.66 12 12.32 12 13 C13.98 13 15.96 13 18 13 C18 13.33 18 13.66 18 14 C20.64 14.33 23.28 14.66 26 15 C26 15.33 26 15.66 26 16 C18.86312478 16.40228733 11.09811754 16.56836088 5.3984375 11.60546875 C2.27822552 8.00171514 0 4.78705536 0 0 Z " fill="#916314" transform="translate(216,266)"/>
<path d="M0 0 C0.70125 0.721875 1.4025 1.44375 2.125 2.1875 C4.0975124 4.1713162 6.14389266 5.98317739 8.3125 7.75 C9.199375 8.4925 10.08625 9.235 11 10 C11 10.33 11 10.66 11 11 C8.03 11.66 5.06 12.32 2 13 C-0.24828052 8.50343896 -0.16682272 4.92127034 0 0 Z " fill="#F0A008" transform="translate(73,250)"/>
<path d="M0 0 C0.66 0.33 1.32 0.66 2 1 C4.14779487 7.4433846 4.16920621 13.23175162 4 20 C0.37 20 -3.26 20 -7 20 C-7 18.02 -7 16.04 -7 14 C-6.67 15.32 -6.34 16.64 -6 18 C-3.36 18 -0.72 18 2 18 C1.855625 17.20335937 1.71125 16.40671875 1.5625 15.5859375 C1.376875 14.52632812 1.19125 13.46671875 1 12.375 C0.7215625 10.80878906 0.7215625 10.80878906 0.4375 9.2109375 C0.01284203 6.09425135 -0.07545206 3.14069188 0 0 Z " fill="#B38418" transform="translate(379,236)"/>
<path d="M0 0 C0.33 0 0.66 0 1 0 C1.18208839 5.65232708 0.49420813 10.87978699 -0.5 16.4375 C-0.64308594 17.26443359 -0.78617187 18.09136719 -0.93359375 18.94335938 C-1.28384663 20.96315101 -1.64119296 22.98171042 -2 25 C1.63 25.33 5.26 25.66 9 26 C9 26.33 9 26.66 9 27 C4.71 27 0.42 27 -4 27 C-3.48138224 17.66488036 -2.16509802 9.08251809 0 0 Z " fill="#AB7D24" transform="translate(407,254)"/>
<path d="M0 0 C2.3125 0.1875 2.3125 0.1875 5 1 C8 5.03448276 8 5.03448276 8 8 C8.99 7.67 9.98 7.34 11 7 C11 7.99 11 8.98 11 10 C11.66 10 12.32 10 13 10 C13.66 12.97 14.32 15.94 15 19 C11.91910327 16.22719294 10.31224548 13.93673644 9 10 C8.34 10 7.68 10 7 10 C7 9.34 7 8.68 7 8 C6.34 8 5.68 8 5 8 C5 7.34 5 6.68 5 6 C4.34 6 3.68 6 3 6 C2.01 4.02 1.02 2.04 0 0 Z " fill="#CE9A22" transform="translate(58,257)"/>
<path d="M0 0 C0.33 0 0.66 0 1 0 C1.14622803 0.83249268 1.29245605 1.66498535 1.44311523 2.52270508 C1.98736125 5.61482555 2.53364119 8.70657781 3.08129883 11.7980957 C3.31779108 13.13551692 3.553475 14.47308134 3.78833008 15.81079102 C4.12628406 17.73491378 4.46739839 19.65848062 4.80859375 21.58203125 C5.01282959 22.73936768 5.21706543 23.8967041 5.42749023 25.08911133 C5.9453538 28.04806976 5.9453538 28.04806976 7 31 C7.03954234 33.33299825 7.04401732 35.66708189 7 38 C5.14620927 34.29241854 3.85284444 31.52844444 3.4375 27.375 C3.35371094 26.55773437 3.26992188 25.74046875 3.18359375 24.8984375 C3.12300781 24.27195313 3.06242187 23.64546875 3 23 C2.67 23 2.34 23 2 23 C1.90912109 21.93458984 1.90912109 21.93458984 1.81640625 20.84765625 C1.73261719 19.92855469 1.64882813 19.00945312 1.5625 18.0625 C1.48128906 17.14597656 1.40007812 16.22945312 1.31640625 15.28515625 C1.23955024 13.03840268 1.23955024 13.03840268 0 12 C-0.07244053 9.98035801 -0.08377188 7.95832876 -0.0625 5.9375 C-0.05347656 4.83277344 -0.04445313 3.72804687 -0.03515625 2.58984375 C-0.02355469 1.73519531 -0.01195312 0.88054687 0 0 Z " fill="#AA811C" transform="translate(391,231)"/>
<path d="M0 0 C0 0.33 0 0.66 0 1 C-1.65 1.33 -3.3 1.66 -5 2 C-5.99 6.62 -6.98 11.24 -8 16 C-12.62 16 -17.24 16 -22 16 C-22 14.02 -22 12.04 -22 10 C-21.67 11.32 -21.34 12.64 -21 14 C-17.04 14.33 -13.08 14.66 -9 15 C-9 10.38 -9 5.76 -9 1 C-5.8035914 -0.06546953 -3.34252724 -0.07427838 0 0 Z " fill="#AE7B1A" transform="translate(376,265)"/>
<path d="M0 0 C0.66 0.33 1.32 0.66 2 1 C3.61457511 7.56246657 2.86981158 13.60246287 1 20 C0.01 20 -0.98 20 -2 20 C-1.855625 18.741875 -1.71125 17.48375 -1.5625 16.1875 C-0.96183814 10.79870505 -0.47449461 5.40116209 0 0 Z " fill="#F6B410" transform="translate(117,227)"/>
<path d="M0 0 C1.62542193 0.64477069 3.25032424 1.29085143 4.875 1.9375 C5.77992187 2.29714844 6.68484375 2.65679687 7.6171875 3.02734375 C10 4 10 4 12 5 C11.67 5.99 11.34 6.98 11 8 C10.96045766 10.33299825 10.95598268 12.66708189 11 15 C10.67 15 10.34 15 10 15 C10 13.02 10 11.04 10 9 C9.01 9.33 8.02 9.66 7 10 C6.34 9.34 5.68 8.68 5 8 C4.01 8.495 4.01 8.495 3 9 C2.814375 8.1646875 2.814375 8.1646875 2.625 7.3125 C1.94023721 4.77887769 0.99061509 2.42821505 0 0 Z " fill="#F99D05" transform="translate(85,261)"/>
<path d="M0 0 C2.94254088 5.49274298 3.10256707 9.84597554 3 16 C-1.29 16 -5.58 16 -10 16 C-8 14 -8 14 -5.8359375 13.8046875 C-4.61777344 13.83949219 -4.61777344 13.83949219 -3.375 13.875 C-2.14910156 13.90207031 -2.14910156 13.90207031 -0.8984375 13.9296875 C0.04128906 13.96449219 0.04128906 13.96449219 1 14 C0.67 12.96875 0.34 11.9375 0 10.875 C-0.96433957 7.51007045 -1.25115367 4.51615139 -1 1 C-0.67 0.67 -0.34 0.34 0 0 Z " fill="#B9801F" transform="translate(446,265)"/>
<path d="M0 0 C1.65 0 3.3 0 5 0 C5.33 1.32 5.66 2.64 6 4 C5.34 4 4.68 4 4 4 C4.33 5.65 4.66 7.3 5 9 C4.34 9 3.68 9 3 9 C3 9.99 3 10.98 3 12 C0.03 11.505 0.03 11.505 -3 11 C-2 8 -2 8 0 6 C0.16681109 2.91652174 0.16681109 2.91652174 0 0 Z " fill="#F9C907" transform="translate(113,185)"/>
<path d="M0 0 C0.33 0 0.66 0 1 0 C0.96519531 1.01320312 0.96519531 1.01320312 0.9296875 2.046875 C0.91164063 2.93890625 0.89359375 3.8309375 0.875 4.75 C0.84019531 6.07257813 0.84019531 6.07257813 0.8046875 7.421875 C1.00860498 10.1135858 1.63448279 11.69904974 3 14 C2.01 14.495 2.01 14.495 1 15 C1 15.66 1 16.32 1 17 C-0.65 16.67 -2.3 16.34 -4 16 C-4.37485997 11.62663369 -3.24092779 9.67512158 -1 6 C-0.28598768 2.80604974 -0.28598768 2.80604974 0 0 Z " fill="#C1981A" transform="translate(104,231)"/>
<path d="M0 0 C0.99 0 1.98 0 3 0 C3 0.66 3 1.32 3 2 C3.66 2 4.32 2 5 2 C6.66517133 8.36607809 7.42650927 12.79892075 5 19 C4.67 19 4.34 19 4 19 C3.95101562 17.92878906 3.90203125 16.85757813 3.8515625 15.75390625 C3.77654706 14.35674361 3.7009987 12.9596095 3.625 11.5625 C3.5940625 10.85544922 3.563125 10.14839844 3.53125 9.41992188 C3.42719371 7.60760812 3.22080108 5.80182012 3 4 C2.34 3.67 1.68 3.34 1 3 C0.67 4.32 0.34 5.64 0 7 C-0.66 6.67 -1.32 6.34 -2 6 C-2 4.68 -2 3.36 -2 2 C-1.34 2 -0.68 2 0 2 C0 1.34 0 0.68 0 0 Z " fill="#B1931C" transform="translate(104,223)"/>
<path d="M0 0 C2.5 1.4375 2.5 1.4375 3.8125 4.5625 C4.1528125 5.985625 4.1528125 5.985625 4.5 7.4375 C1.64550355 7.4375 -0.73253333 7.09295263 -3.5 6.4375 C-4.5 5.4375 -4.5 5.4375 -4.5625 2.875 C-4.541875 2.070625 -4.52125 1.26625 -4.5 0.4375 C-2.5 -0.5625 -2.5 -0.5625 0 0 Z " fill="#C9A61D" transform="translate(112.5,212.5625)"/>
<path d="M0 0 C1.32 0 2.64 0 4 0 C6.55698285 3.78667689 6.03499684 7.4122334 5.625 11.75 C5.56828125 12.44738281 5.5115625 13.14476562 5.453125 13.86328125 C5.31232128 15.57639312 5.15754028 17.28834611 5 19 C4.67 19 4.34 19 4 19 C3.67 14.05 3.34 9.1 3 4 C-2.56717533 6.35456323 -2.56717533 6.35456323 -8 9 C-8 8.34 -8 7.68 -8 7 C-7.34 7 -6.68 7 -6 7 C-6 6.01 -6 5.02 -6 4 C-4.68 4 -3.36 4 -2 4 C-1.34 2.68 -0.68 1.36 0 0 Z " fill="#9F8212" transform="translate(89,201)"/>
<path d="M0 0 C0.99 0 1.98 0 3 0 C3.33 1.32 3.66 2.64 4 4 C1.69 5.98 -0.62 7.96 -3 10 C-4.32 9.34 -5.64 8.68 -7 8 C-7 6.68 -7 5.36 -7 4 C-6.01 4.495 -6.01 4.495 -5 5 C-5.33 5.66 -5.66 6.32 -6 7 C-5.34 7 -4.68 7 -4 7 C-3.67 6.01 -3.34 5.02 -3 4 C-2.01 4.33 -1.02 4.66 0 5 C-0.2784375 4.0409375 -0.2784375 4.0409375 -0.5625 3.0625 C-0.706875 2.381875 -0.85125 1.70125 -1 1 C-0.67 0.67 -0.34 0.34 0 0 Z " fill="#D19415" transform="translate(111,250)"/>
<path d="M0 0 C-0.33 1.65 -0.66 3.3 -1 5 C-1.99 5 -2.98 5 -4 5 C-4 4.34 -4 3.68 -4 3 C-4.99 3.33 -5.98 3.66 -7 4 C-7 5.32 -7 6.64 -7 8 C-7.99 8 -8.98 8 -10 8 C-10.33 8.66 -10.66 9.32 -11 10 C-11.66 10 -12.32 10 -13 10 C-12.67 8.35 -12.34 6.7 -12 5 C-11.34 5 -10.68 5 -10 5 C-10 4.34 -10 3.68 -10 3 C-6.58168085 0.4606772 -4.24223102 -0.3636198 0 0 Z " fill="#DAA51B" transform="translate(118,247)"/>
<path d="M0 0 C-0.33 1.65 -0.66 3.3 -1 5 C-0.01 4.67 0.98 4.34 2 4 C2.66 5.98 3.32 7.96 4 10 C1 10 1 10 -0.6875 8.625 C-2 7 -2 7 -2 5 C-2.66 5 -3.32 5 -4 5 C-5.625 2.5 -5.625 2.5 -7 0 C-4.3333581 -1.33332095 -2.83319697 -0.67102033 0 0 Z " fill="#CA8112" transform="translate(92,290)"/>
<path d="M0 0 C5.81390754 -0.23730235 10.46384951 0.22843184 16 2 C16.99 2 17.98 2 19 2 C19 2.99 19 3.98 19 5 C19.66 5.66 20.32 6.32 21 7 C20.01 7.495 20.01 7.495 19 8 C15.74446622 6.58395664 12.61786556 4.96303025 9.45703125 3.34765625 C5.71546012 1.88907767 2.97854205 1.752289 -1 2 C-0.67 1.34 -0.34 0.68 0 0 Z " fill="#AD9319" transform="translate(100,194)"/>
<path d="M0 0 C0.33 0 0.66 0 1 0 C1.04898437 0.62648438 1.09796875 1.25296875 1.1484375 1.8984375 C1.22320312 2.71570313 1.29796875 3.53296875 1.375 4.375 C1.44460938 5.18710937 1.51421875 5.99921875 1.5859375 6.8359375 C1.82892588 9.20334191 1.82892588 9.20334191 4 11 C4 11.99 4 12.98 4 14 C5.98 14 7.96 14 10 14 C10.33 13.34 10.66 12.68 11 12 C11 12.99 11 13.98 11 15 C9.56260487 15.02712066 8.12506137 15.04645067 6.6875 15.0625 C5.48673828 15.07990234 5.48673828 15.07990234 4.26171875 15.09765625 C2 15 2 15 -1 14 C-0.67 9.38 -0.34 4.76 0 0 Z " fill="#E29A19" transform="translate(356,265)"/>
<path d="M0 0 C0.33 0 0.66 0 1 0 C1 12.54 1 25.08 1 38 C-0.98 38.495 -0.98 38.495 -3 39 C-2.67854004 38.33846924 -2.35708008 37.67693848 -2.02587891 36.99536133 C-0.77120492 33.3319641 -0.64753995 29.90278141 -0.5859375 26.07421875 C-0.56657135 25.32662796 -0.5472052 24.57903717 -0.5272522 23.80879211 C-0.46776082 21.43514194 -0.42119408 19.06144246 -0.375 16.6875 C-0.33679211 15.07224518 -0.29773875 13.45701013 -0.2578125 11.84179688 C-0.1620847 7.8946929 -0.07794233 3.94749361 0 0 Z " fill="#826308" transform="translate(196,226)"/>
<path d="M0 0 C0.66 0 1.32 0 2 0 C2.36372387 2.24847481 2.71564096 4.49886188 3.0625 6.75 C3.25972656 8.00296875 3.45695312 9.2559375 3.66015625 10.546875 C4 14 4 14 3 18 C-0.3 18 -3.6 18 -7 18 C-7 16.02 -7 14.04 -7 12 C-6.67 12 -6.34 12 -6 12 C-6 13.65 -6 15.3 -6 17 C-3.36 17 -0.72 17 2 17 C1.855625 16.35933594 1.71125 15.71867188 1.5625 15.05859375 C0.45964509 9.91959623 -0.22839311 5.25304157 0 0 Z " fill="#A97F11" transform="translate(428,237)"/>
<path d="M0 0 C0.66 0 1.32 0 2 0 C2.31806054 7.7276932 2.32270836 13.93924474 -1 21 C-1.33 21 -1.66 21 -2 21 C-1.3741355 13.99564408 -0.71325905 6.99600901 0 0 Z " fill="#B49824" transform="translate(120,228)"/>
<path d="M0 0 C0 0.66 0 1.32 0 2 C-0.99 2 -1.98 2 -3 2 C-3.66 3.32 -4.32 4.64 -5 6 C-6.98 6 -8.96 6 -11 6 C-11 6.66 -11 7.32 -11 8 C-12.98 8.33 -14.96 8.66 -17 9 C-12.61904215 4.09332721 -6.79691003 0 0 0 Z " fill="#B89D1A" transform="translate(87,183)"/>
<path d="M0 0 C2.02907167 3.3146667 2.12742133 5.4315979 1.625 9.25 C1.51414062 10.14203125 1.40328125 11.0340625 1.2890625 11.953125 C1.19367188 12.62859375 1.09828125 13.3040625 1 14 C0.34 14 -0.32 14 -1 14 C-1 16.31 -1 18.62 -1 21 C-1.66 21 -2.32 21 -3 21 C-3.33 22.32 -3.66 23.64 -4 25 C-3.24010799 19.5036937 -2.35894561 14.03385883 -1.4375 8.5625 C-1.29892578 7.73556641 -1.16035156 6.90863281 -1.01757812 6.05664062 C-0.67913211 4.03763511 -0.33967107 2.01879978 0 0 Z " fill="#A07D19" transform="translate(412,226)"/>
<path d="M0 0 C3.75319569 3.3937347 5.20855706 7.03549428 6 12 C5.67639056 16.08924653 4.9383997 20.01011349 4 24 C3.67 24 3.34 24 3 24 C2.95101562 22.96359375 2.90203125 21.9271875 2.8515625 20.859375 C2.77650403 19.48955792 2.70095753 18.11976752 2.625 16.75 C2.57859375 15.72712891 2.57859375 15.72712891 2.53125 14.68359375 C2.31417312 10.95710729 1.85655667 8.23400194 0 5 C-0.125 2.25 -0.125 2.25 0 0 Z " fill="#D7B314" transform="translate(205,212)"/>
<path d="M0 0 C0.66 0 1.32 0 2 0 C2.99 2.31 3.98 4.62 5 7 C5.33 7 5.66 7 6 7 C6 8.98 6 10.96 6 13 C6.66 13 7.32 13 8 13 C7.67 14.65 7.34 16.3 7 18 C4.87491756 14.81237635 4.4979837 12.73487777 4 9 C3.34 9 2.68 9 2 9 C1.34 6.03 0.68 3.06 0 0 Z " fill="#A37C1F" transform="translate(285,262)"/>
<path d="M0 0 C0.99 0.33 1.98 0.66 3 1 C2.34 1 1.68 1 1 1 C0.5978125 1.8353125 0.5978125 1.8353125 0.1875 2.6875 C-1 5 -1 5 -2.5 7.125 C-4.63877651 11.22432165 -5.25183439 15.46699661 -6 20 C-6.33 20 -6.66 20 -7 20 C-7.18451025 9.44191344 -7.18451025 9.44191344 -6 5 C-5.34 5 -4.68 5 -4 5 C-4 4.34 -4 3.68 -4 3 C-3.01 2.67 -2.02 2.34 -1 2 C-0.67 1.34 -0.34 0.68 0 0 Z " fill="#B38B19" transform="translate(76,212)"/>
<path d="M0 0 C0.99 0.33 1.98 0.66 3 1 C2.67 12.22 2.34 23.44 2 35 C1.67 35 1.34 35 1 35 C0.505 17.675 0.505 17.675 0 0 Z " fill="#F8C427" transform="translate(339,223)"/>
<path d="M0 0 C2.08432499 3.12648749 3.28558611 6.05730868 4.625 9.5625 C5.07101562 10.71878906 5.51703125 11.87507812 5.9765625 13.06640625 C7 16 7 16 7 18 C5 18 5 18 3.44921875 16.8046875 C1.66577131 14.58379069 1.3091069 12.91788324 0.8125 10.125 C0.65394531 9.28195313 0.49539063 8.43890625 0.33203125 7.5703125 C0.00193581 5.01498548 -0.05995262 2.57335099 0 0 Z " fill="#B9991D" transform="translate(277,206)"/>
<path d="M0 0 C0.33 0 0.66 0 1 0 C1 7.59 1 15.18 1 23 C1.99 22.67 2.98 22.34 4 22 C4.66 22.66 5.32 23.32 6 24 C2.98968256 24.93423645 2.13349732 25.04449911 -1 24 C-0.67 16.08 -0.34 8.16 0 0 Z " fill="#E1A016" transform="translate(324,245)"/>
<path d="M0 0 C0.66 0 1.32 0 2 0 C1.35588614 5.55313696 0.49942196 11.01255636 -0.5625 16.5 C-0.70107422 17.22703125 -0.83964844 17.9540625 -0.98242188 18.703125 C-1.31936665 20.46918037 -1.65935683 22.23465426 -2 24 C-2.33 24 -2.66 24 -3 24 C-2.29563752 15.95543903 -1.18531495 7.98649105 0 0 Z " fill="#EAA917" transform="translate(409,247)"/>
<path d="M0 0 C0 0.66 0 1.32 0 2 C-1.04800781 2.09087891 -1.04800781 2.09087891 -2.1171875 2.18359375 C-3.02726562 2.26738281 -3.93734375 2.35117188 -4.875 2.4375 C-5.77992187 2.51871094 -6.68484375 2.59992188 -7.6171875 2.68359375 C-10.01110861 2.86989285 -10.01110861 2.86989285 -12 4 C-14.3494053 3.39239518 -16.68529088 2.72870472 -19 2 C-19 1.67 -19 1.34 -19 1 C-12.62641289 0.03794912 -6.44070471 -0.10655578 0 0 Z " fill="#AE991A" transform="translate(106,181)"/>
<path d="M0 0 C0.33 0 0.66 0 1 0 C1.52992381 2.76937583 2.0492458 5.54003079 2.5625 8.3125 C2.71396484 9.09818359 2.86542969 9.88386719 3.02148438 10.69335938 C3.16005859 11.45068359 3.29863281 12.20800781 3.44140625 12.98828125 C3.57232666 13.68477783 3.70324707 14.38127441 3.83813477 15.09887695 C4 17 4 17 3 20 C0.9375 17.9375 0.9375 17.9375 -1 15 C-0.75 11.6875 -0.75 11.6875 0 8 C0.0985403 5.32533471 0.0469757 2.67761476 0 0 Z " fill="#A87A17" transform="translate(442,242)"/>
<path d="M0 0 C0.33 0 0.66 0 1 0 C1.52992381 2.76937583 2.0492458 5.54003079 2.5625 8.3125 C2.71396484 9.09818359 2.86542969 9.88386719 3.02148438 10.69335938 C3.16005859 11.45068359 3.29863281 12.20800781 3.44140625 12.98828125 C3.57232666 13.68477783 3.70324707 14.38127441 3.83813477 15.09887695 C4 17 4 17 3 20 C3 19.34 3 18.68 3 18 C2.34 18 1.68 18 1 18 C0.04380267 14.00204108 -0.1039592 10.29196078 -0.0625 6.1875 C-0.05347656 5.02605469 -0.04445313 3.86460937 -0.03515625 2.66796875 C-0.02355469 1.78753906 -0.01195312 0.90710938 0 0 Z " fill="#A8881D" transform="translate(438,222)"/>
<path d="M0 0 C0.33 0 0.66 0 1 0 C1.28977703 7.24442569 0.30297573 12.49119488 -3 19 C-2.88534579 16.77027727 -2.75785234 14.54121247 -2.625 12.3125 C-2.55539062 11.07113281 -2.48578125 9.82976562 -2.4140625 8.55078125 C-2.03577906 5.30682228 -1.38020024 2.93432815 0 0 Z " fill="#D5AF2A" transform="translate(416,211)"/>
<path d="M0 0 C-0.41575062 4.85042388 -2.41659978 6.84319505 -6 10 C-6.99 10.66 -7.98 11.32 -9 12 C-7.95309706 7.14617727 -6.12205041 0 0 0 Z " fill="#F6AB0D" transform="translate(136,247)"/>
<path d="M0 0 C-1.51218908 4.23412942 -4.27839809 5.69260682 -8 8 C-9.34175973 8.98866506 -10.67896002 9.9838154 -12 11 C-12.66 10.67 -13.32 10.34 -14 10 C-12.23722805 8.32401988 -10.46575711 6.65940764 -8.6875 5 C-7.93823242 4.28457031 -7.93823242 4.28457031 -7.17382812 3.5546875 C-3.33984375 0 -3.33984375 0 0 0 Z " fill="#C18C22" transform="translate(118,267)"/>
<path d="M0 0 C1.32 0.66 2.64 1.32 4 2 C4 2.99 4 3.98 4 5 C1.21176345 6.0326802 0.1322726 6.04509293 -2.75 5.0625 C-3.4925 4.711875 -4.235 4.36125 -5 4 C-3.35 2.68 -1.7 1.36 0 0 Z " fill="#ED9A09" transform="translate(197,273)"/>
<path d="M0 0 C0 0.99 0 1.98 0 3 C0.66 3 1.32 3 2 3 C1.67 4.65 1.34 6.3 1 8 C0.731875 7.38125 0.46375 6.7625 0.1875 6.125 C-0.95556848 3.7004767 -0.95556848 3.7004767 -4 2 C-6.0492094 1.54860541 -6.0492094 1.54860541 -8.1875 1.375 C-9.445625 1.25125 -10.70375 1.1275 -12 1 C-12 0.67 -12 0.34 -12 0 C-7.6835078 -0.76173392 -4.25566547 -1.16063604 0 0 Z " fill="#A47E14" transform="translate(195,218)"/>
<path d="M0 0 C0.66 0 1.32 0 2 0 C3.1577506 3.47325181 3.06866652 6.36067448 3 10 C1.35 10 -0.3 10 -2 10 C-1.34 6.7 -0.68 3.4 0 0 Z " fill="#C88613" transform="translate(397,269)"/>
<path d="M0 0 C0.99 0.33 1.98 0.66 3 1 C3 2.32 3 3.64 3 5 C3.66 5 4.32 5 5 5 C5 5.99 5 6.98 5 8 C5.99 8 6.98 8 8 8 C8 8.99 8 9.98 8 11 C6.25 10.9375 6.25 10.9375 4 10 C1.55272534 6.7838181 0 4.07605096 0 0 Z " fill="#B58319" transform="translate(216,266)"/>
<path d="M0 0 C0.33 0.66 0.66 1.32 1 2 C1.99 2.33 2.98 2.66 4 3 C3.67 4.98 3.34 6.96 3 9 C2.34 8.67 1.68 8.34 1 8 C1 6.68 1 5.36 1 4 C-1.31 3.67 -3.62 3.34 -6 3 C-3 1 -3 1 0 0 Z " fill="#D3910D" transform="translate(192,265)"/>
<path d="M0 0 C0 0.66 0 1.32 0 2 C-1.32 2.33 -2.64 2.66 -4 3 C-4.103125 3.78375 -4.20625 4.5675 -4.3125 5.375 C-5 8 -5 8 -8 10 C-8.75 7.75 -8.75 7.75 -9 5 C-6.48428938 1.76551491 -4.24534146 0 0 0 Z " fill="#B89117" transform="translate(89,222)"/>
<path d="M0 0 C0.66 0.99 1.32 1.98 2 3 C3.31387169 4.35251497 4.64426252 5.68945377 6 7 C5.34 8.32 4.68 9.64 4 11 C0 6.25 0 6.25 0 4 C-0.66 4 -1.32 4 -2 4 C-2.33 3.01 -2.66 2.02 -3 1 C-2.01 0.67 -1.02 0.34 0 0 Z " fill="#AA761B" transform="translate(78,277)"/>
<path d="M0 0 C0.99 0 1.98 0 3 0 C4.42857143 8.57142857 4.42857143 8.57142857 2 12 C-0.60018816 8.09971775 -0.15085514 4.52565431 0 0 Z " fill="#AD8310" transform="translate(376,224)"/>
<path d="M0 0 C1.32 0.66 2.64 1.32 4 2 C3.67 2.66 3.34 3.32 3 4 C2.34 4 1.68 4 1 4 C0.731875 4.598125 0.46375 5.19625 0.1875 5.8125 C-0.98493467 7.97224808 -2.19369282 9.35790256 -4 11 C-4 9.68 -4 8.36 -4 7 C-3.34 7 -2.68 7 -2 7 C-2 5.68 -2 4.36 -2 3 C-1.34 2.67 -0.68 2.34 0 2 C0 1.34 0 0.68 0 0 Z " fill="#B07F16" transform="translate(124,275)"/>
<path d="M0 0 C1.62542193 0.64477069 3.25032424 1.29085143 4.875 1.9375 C5.77992187 2.29714844 6.68484375 2.65679687 7.6171875 3.02734375 C10 4 10 4 12 5 C11.67 5.66 11.34 6.32 11 7 C9.53760185 6.79839367 8.07988435 6.56262996 6.625 6.3125 C5.81289062 6.18488281 5.00078125 6.05726563 4.1640625 5.92578125 C2 5 2 5 0.7109375 2.41796875 C0.47632812 1.62003906 0.24171875 0.82210938 0 0 Z " fill="#B8881E" transform="translate(85,261)"/>
<path d="M0 0 C1.31611677 0.95336021 2.62778961 1.91285774 3.9375 2.875 C4.66839844 3.40867187 5.39929688 3.94234375 6.15234375 4.4921875 C8 6 8 6 9 8 C6.69 8 4.38 8 2 8 C1.33333333 5.33333333 0.66666667 2.66666667 0 0 Z " fill="#BA891A" transform="translate(75,253)"/>
<path d="M0 0 C0.33 0.99 0.66 1.98 1 3 C1.66 3 2.32 3 3 3 C3.66 5.97 4.32 8.94 5 12 C1.18699218 8.7129243 -0.22972246 5.60272162 -2 1 C-1.34 0.67 -0.68 0.34 0 0 Z " fill="#CF8E1B" transform="translate(68,264)"/>
<path d="M0 0 C0.66 0 1.32 0 2 0 C2 0.66 2 1.32 2 2 C2.99 2 3.98 2 5 2 C5 4.64 5 7.28 5 10 C1.32769295 6.92000054 0.43197635 4.7517398 0 0 Z " fill="#CD961E" transform="translate(280,249)"/>
<path d="M0 0 C1.32 0.66 2.64 1.32 4 2 C3.02433888 3.16959987 2.044375 4.33561177 1.0625 5.5 C0.51722656 6.1496875 -0.02804688 6.799375 -0.58984375 7.46875 C-1.05519531 7.9740625 -1.52054687 8.479375 -2 9 C-2.33 9 -2.66 9 -3 9 C-3 7.35 -3 5.7 -3 4 C-2.01 4 -1.02 4 0 4 C0 2.68 0 1.36 0 0 Z " fill="#B67E1B" transform="translate(107,295)"/>
<path d="M0 0 C3 0 3 0 5 1 C3.90931332 4.77545388 3.0916909 7.47043472 0 10 C-0.66 9.67 -1.32 9.34 -2 9 C-1.34 8.34 -0.68 7.68 0 7 C0.16677282 3.41656024 0.16677282 3.41656024 0 0 Z " fill="#CE9823" transform="translate(204,266)"/>
<path d="M0 0 C0.33 0 0.66 0 1 0 C2.40454548 6.11980533 3.23268915 11.71739294 3 18 C2.67 18 2.34 18 2 18 C-0.61281488 12.12116651 -0.18328202 6.29268272 0 0 Z " fill="#B49221" transform="translate(391,231)"/>
<path d="M0 0 C0.66 0.66 1.32 1.32 2 2 C1.9765625 4.1640625 1.9765625 4.1640625 1.625 6.625 C1.51414062 7.44226563 1.40328125 8.25953125 1.2890625 9.1015625 C1.19367188 9.72804687 1.09828125 10.35453125 1 11 C0.34 11 -0.32 11 -1 11 C-1.33 11.99 -1.66 12.98 -2 14 C-1.85866501 12.22880197 -1.71176792 10.45804713 -1.5625 8.6875 C-1.48128906 7.70136719 -1.40007812 6.71523437 -1.31640625 5.69921875 C-1 3 -1 3 0 0 Z " fill="#9B7D19" transform="translate(364,223)"/>
<path d="M0 0 C0.66 0.33 1.32 0.66 2 1 C1.01 1.8971875 1.01 1.8971875 0 2.8125 C-2.3373846 4.87501834 -2.3373846 4.87501834 -2 8 C-3.98 8 -5.96 8 -8 8 C-5.33333333 5.33333333 -2.66666667 2.66666667 0 0 Z " fill="#F79A05" transform="translate(112,272)"/>
<path d="M0 0 C2.56616632 3.84924948 2.55097676 6.4349304 3 11 C2.01 10.67 1.02 10.34 0 10 C-0.19412181 8.52168779 -0.38012131 7.04230684 -0.5625 5.5625 C-0.66691406 4.73878906 -0.77132812 3.91507812 -0.87890625 3.06640625 C-0.91886719 2.38449219 -0.95882812 1.70257813 -1 1 C-0.67 0.67 -0.34 0.34 0 0 Z " fill="#F6A40B" transform="translate(227,255)"/>
<path d="M0 0 C2.1991413 4.39828259 2.51855059 7.18550592 3 12 C2.01 12 1.02 12 0 12 C0 8.04 0 4.08 0 0 Z " fill="#E0B11E" transform="translate(427,224)"/>
<path d="M0 0 C1.485 0.99 1.485 0.99 3 2 C3.29296875 4.1640625 3.29296875 4.1640625 3.1875 6.625 C3.16042969 7.44226563 3.13335937 8.25953125 3.10546875 9.1015625 C3.07066406 9.72804687 3.03585938 10.35453125 3 11 C2.34 10.67 1.68 10.34 1 10 C0.33203125 7.96875 0.33203125 7.96875 -0.1875 5.5 C-0.36667969 4.6853125 -0.54585938 3.870625 -0.73046875 3.03125 C-0.81941406 2.3609375 -0.90835938 1.690625 -1 1 C-0.67 0.67 -0.34 0.34 0 0 Z " fill="#F5B908" transform="translate(105,225)"/>
<path d="M0 0 C0.66 0.33 1.32 0.66 2 1 C-1.16438356 7.78082192 -1.16438356 7.78082192 -4 10 C-4.66 10 -5.32 10 -6 10 C-4.87548273 7.0280615 -3.77706209 4.66559313 -2 2 C-1.34 2 -0.68 2 0 2 C0 1.34 0 0.68 0 0 Z " fill="#A68922" transform="translate(65,195)"/>
<path d="M0 0 C0.99 0 1.98 0 3 0 C3 0.66 3 1.32 3 2 C3.66 2 4.32 2 5 2 C4.67 3.32 4.34 4.64 4 6 C3.01 5.01 2.02 4.02 1 3 C0.67 4.32 0.34 5.64 0 7 C-0.66 6.67 -1.32 6.34 -2 6 C-2 4.68 -2 3.36 -2 2 C-1.34 2 -0.68 2 0 2 C0 1.34 0 0.68 0 0 Z " fill="#9B8729" transform="translate(104,223)"/>
<path d="M0 0 C0.99 0 1.98 0 3 0 C3 0.66 3 1.32 3 2 C4.65 2.33 6.3 2.66 8 3 C7.67 4.32 7.34 5.64 7 7 C6.34 6.34 5.68 5.68 5 5 C2.41645782 4.83312552 2.41645782 4.83312552 0 5 C0 3.35 0 1.7 0 0 Z " fill="#F7C40B" transform="translate(340,209)"/>
<path d="M0 0 C0.33 0 0.66 0 1 0 C1.08333357 4.8333472 0.95261487 9.23692563 0 14 C-0.33 14 -0.66 14 -1 14 C-2.12029814 8.51053913 -1.79217969 5.16569441 0 0 Z " fill="#B38C1A" transform="translate(374,236)"/>
<path d="M0 0 C0.99 0.495 0.99 0.495 2 1 C2.4140625 3.28515625 2.4140625 3.28515625 2.625 6.0625 C2.69976562 6.98160156 2.77453125 7.90070313 2.8515625 8.84765625 C2.92503906 9.91306641 2.92503906 9.91306641 3 11 C1.03553095 9.3655205 0.07682209 8.53570606 -0.29296875 5.95703125 C-0.1953125 3.97135417 -0.09765625 1.98567708 0 0 Z " fill="#FAB602" transform="translate(117,227)"/>
<path d="M0 0 C0.66 0.66 1.32 1.32 2 2 C2.33 1.34 2.66 0.68 3 0 C3.66 1.65 4.32 3.3 5 5 C2.69 5.33 0.38 5.66 -2 6 C-2.33 5.01 -2.66 4.02 -3 3 C-2.01 3 -1.02 3 0 3 C0 2.01 0 1.02 0 0 Z " fill="#B29013" transform="translate(114,217)"/>
<path d="M0 0 C0.39832031 0.47050781 0.79664063 0.94101562 1.20703125 1.42578125 C3.3617393 3.31760553 4.89091882 3.66060789 7.6875 4.1875 C8.49574219 4.34605469 9.30398437 4.50460937 10.13671875 4.66796875 C11.05904297 4.83232422 11.05904297 4.83232422 12 5 C9.24921116 5.91692961 7.64051087 6.10886083 4.8125 6.0625 C2.9253125 6.0315625 2.9253125 6.0315625 1 6 C0.67 4.02 0.34 2.04 0 0 Z " fill="#AF7F10" transform="translate(230,264)"/>
<path d="M0 0 C1.65 0 3.3 0 5 0 C3.70700306 2.88437779 2.34058637 4.87219421 0 7 C0 4.69 0 2.38 0 0 Z " fill="#C98917" transform="translate(130,267)"/>
<path d="M0 0 C2 4 2 4 1.25 7.625 C0 11 0 11 -2 13 C-1.34 8.71 -0.68 4.42 0 0 Z " fill="#D99E21" transform="translate(350,260)"/>
<path d="M0 0 C3.63 0.33 7.26 0.66 11 1 C11 1.33 11 1.66 11 2 C8.03 2 5.06 2 2 2 C1.67 3.98 1.34 5.96 1 8 C0.67 8 0.34 8 0 8 C0 5.36 0 2.72 0 0 Z " fill="#F7BB15" transform="translate(322,216)"/>
<path d="M0 0 C0.99 0.33 1.98 0.66 3 1 C3.33 2.65 3.66 4.3 4 6 C2.68 6.33 1.36 6.66 0 7 C0 4.69 0 2.38 0 0 Z " fill="#F4990C" transform="translate(95,295)"/>
<path d="M0 0 C1.32 0.33 2.64 0.66 4 1 C3.67 1.66 3.34 2.32 3 3 C2.34 3 1.68 3 1 3 C1 3.66 1 4.32 1 5 C0.34 5 -0.32 5 -1 5 C-1.33 5.99 -1.66 6.98 -2 8 C-2.33 7.01 -2.66 6.02 -3 5 C-1.5625 2.3125 -1.5625 2.3125 0 0 Z " fill="#B2841D" transform="translate(114,288)"/>
<path d="M0 0 C0.33 0 0.66 0 1 0 C1 1.98 1 3.96 1 6 C1.66 6 2.32 6 3 6 C2.67 7.65 2.34 9.3 2 11 C0.03061395 8.04592092 -0.56901423 6.44788617 -1 3 C-0.67 2.01 -0.34 1.02 0 0 Z " fill="#C68C1B" transform="translate(290,269)"/>
<path d="M0 0 C0.99 0.495 0.99 0.495 2 1 C1.67 1.66 1.34 2.32 1 3 C1.66 3 2.32 3 3 3 C3.33 2.01 3.66 1.02 4 0 C4 0.99 4 1.98 4 3 C4.66 3 5.32 3 6 3 C6 3.66 6 4.32 6 5 C4.125 5.625 4.125 5.625 2 6 C1.34 5.34 0.68 4.68 0 4 C0 2.68 0 1.36 0 0 Z " fill="#94771D" transform="translate(104,254)"/>
<path d="M0 0 C0 1.32 0 2.64 0 4 C-0.639375 4.12375 -1.27875 4.2475 -1.9375 4.375 C-2.9584375 4.684375 -2.9584375 4.684375 -4 5 C-4.33 5.66 -4.66 6.32 -5 7 C-5.1875 4.625 -5.1875 4.625 -5 2 C-2 0 -2 0 0 0 Z " fill="#FABC0F" transform="translate(280,234)"/>
<path d="M0 0 C2.89932357 2.39509338 3.50168276 4.31245243 4 8 C3.01 8.495 3.01 8.495 2 9 C0.14223235 5.86501708 -0.20140476 3.62528568 0 0 Z " fill="#BC9C1C" transform="translate(205,212)"/>
<path d="M0 0 C1.23556641 0.01740234 1.23556641 0.01740234 2.49609375 0.03515625 C3.32238281 0.04417969 4.14867187 0.05320313 5 0.0625 C5.63808594 0.07410156 6.27617187 0.08570313 6.93359375 0.09765625 C4.85525172 1.18030722 3.11382113 2.06055061 0.80859375 2.53515625 C-1.46101196 2.99886646 -1.46101196 2.99886646 -3.06640625 6.09765625 C-3.10912725 4.4315372 -3.10704457 2.7638274 -3.06640625 1.09765625 C-2.06640625 0.09765625 -2.06640625 0.09765625 0 0 Z " fill="#967819" transform="translate(419.06640625,204.90234375)"/>
<path d="M0 0 C2.97 0 5.94 0 9 0 C9 0.66 9 1.32 9 2 C3.375 3.125 3.375 3.125 0 2 C0 1.34 0 0.68 0 0 Z " fill="#F0A41A" transform="translate(421,255)"/>
<path d="M0 0 C2 3 2 3 1.75 6.0625 C1 9 1 9 -1 11 C-0.67 7.37 -0.34 3.74 0 0 Z " fill="#BD9915" transform="translate(119,238)"/>
<path d="M0 0 C0.33 1.32 0.66 2.64 1 4 C-0.98 4.66 -2.96 5.32 -5 6 C-5.66 5.34 -6.32 4.68 -7 4 C-6.030625 3.525625 -5.06125 3.05125 -4.0625 2.5625 C-1.19522563 1.29806053 -1.19522563 1.29806053 0 0 Z " fill="#A37918" transform="translate(337,263)"/>
<path d="M0 0 C0.66 0 1.32 0 2 0 C1.3125 2.4375 1.3125 2.4375 0 5 C-2.625 5.8125 -2.625 5.8125 -5 6 C-3.625 4 -3.625 4 -2 2 C-1.34 2 -0.68 2 0 2 C0 1.34 0 0.68 0 0 Z " fill="#A17014" transform="translate(121,261)"/>
<path d="M0 0 C1.5625 1.25 1.5625 1.25 3 3 C2.6875 5.1875 2.6875 5.1875 2 7 C1.01 6.67 0.02 6.34 -1 6 C-0.67 4.02 -0.34 2.04 0 0 Z " fill="#F9B81A" transform="translate(380,230)"/>
<path d="M0 0 C0.33 0 0.66 0 1 0 C1.33 3.3 1.66 6.6 2 10 C1.01 9.67 0.02 9.34 -1 9 C-0.67 6.03 -0.34 3.06 0 0 Z " fill="#F9BC06" transform="translate(433,209)"/>
<path d="M0 0 C3.24208567 0.35049575 4.61527704 0.56221181 6.8125 3.0625 C7.204375 3.701875 7.59625 4.34125 8 5 C6.35 4.67 4.7 4.34 3 4 C3 3.34 3 2.68 3 2 C2.01 2 1.02 2 0 2 C0 1.34 0 0.68 0 0 Z " fill="#B39A1F" transform="translate(340,207)"/>
<path d="M0 0 C0.185625 0.9590625 0.185625 0.9590625 0.375 1.9375 C0.684375 2.9584375 0.684375 2.9584375 1 4 C1.66 4.33 2.32 4.66 3 5 C1.02 5.66 -0.96 6.32 -3 7 C-3 6.01 -3 5.02 -3 4 C-2.34 3.67 -1.68 3.34 -1 3 C-0.67 2.01 -0.34 1.02 0 0 Z " fill="#D2951C" transform="translate(243,262)"/>
<path d="M0 0 C0.33 0 0.66 0 1 0 C1.125 2.875 1.125 2.875 1 6 C0.34 6.66 -0.32 7.32 -1 8 C-1.625 5.6875 -1.625 5.6875 -2 3 C-1.34 2.01 -0.68 1.02 0 0 Z " fill="#BF9E21" transform="translate(98,229)"/>
<path d="M0 0 C3.79303725 1.00193437 6.71536341 1.81024227 10 4 C8.68 4.33 7.36 4.66 6 5 C5.67 4.01 5.34 3.02 5 2 C3.02 2 1.04 2 -1 2 C-0.67 1.34 -0.34 0.68 0 0 Z " fill="#AD9715" transform="translate(113,183)"/>
</svg>
